<svg xmlns="http://www.w3.org/2000/svg" viewBox="0 0 750 500"><g id="freepik--background-complete--inject-56"><rect x="578.91" y="137.61" width="131.23" height="87.9" style="fill:#f5f5f5"></rect><rect x="578.91" y="137.61" width="131.23" height="8.78" style="fill:#ebebeb"></rect><path d="M584.59,142a1.06,1.06,0,1,1-1.06-1A1,1,0,0,1,584.59,142Z" style="fill:#fff"></path><path d="M588,142a1.06,1.06,0,1,1-1.06-1A1,1,0,0,1,588,142Z" style="fill:#fff"></path><path d="M591.44,142a1.06,1.06,0,1,1-1.06-1A1,1,0,0,1,591.44,142Z" style="fill:#fff"></path><rect x="306.31" y="65.41" width="246.33" height="164.99" style="fill:#e0e0e0"></rect><rect x="306.31" y="65.41" width="246.33" height="16.48" style="fill:#e0e0e0"></rect><path d="M317,73.65a2,2,0,1,1-2-1.85A1.92,1.92,0,0,1,317,73.65Z" style="fill:#fff"></path><path d="M323.4,73.65a2,2,0,1,1-2-1.85A1.92,1.92,0,0,1,323.4,73.65Z" style="fill:#fff"></path><path d="M329.83,73.65a2,2,0,1,1-2-1.85A1.92,1.92,0,0,1,329.83,73.65Z" style="fill:#fff"></path><rect x="513.74" y="211.5" width="185.03" height="123.93" style="fill:#e0e0e0"></rect><rect x="513.74" y="211.5" width="185.03" height="12.38" style="fill:#e0e0e0"></rect><path d="M521.76,217.69a1.5,1.5,0,1,1-1.5-1.39A1.45,1.45,0,0,1,521.76,217.69Z" style="fill:#fff"></path><path d="M526.58,217.69a1.5,1.5,0,1,1-1.49-1.39A1.44,1.44,0,0,1,526.58,217.69Z" style="fill:#fff"></path><path d="M531.41,217.69a1.5,1.5,0,1,1-1.5-1.39A1.45,1.45,0,0,1,531.41,217.69Z" style="fill:#fff"></path><rect x="279.31" y="304.58" width="131.23" height="87.9" style="fill:#f5f5f5"></rect><rect x="279.31" y="304.58" width="131.23" height="8.78" style="fill:#ebebeb"></rect><path d="M285,309a1.06,1.06,0,0,1-2.12,0,1.06,1.06,0,0,1,2.12,0Z" style="fill:#fff"></path><path d="M288.42,309a1.06,1.06,0,1,1-1.06-1A1,1,0,0,1,288.42,309Z" style="fill:#fff"></path><path d="M291.85,309a1.07,1.07,0,1,1-1.07-1A1,1,0,0,1,291.85,309Z" style="fill:#fff"></path><rect x="86.71" y="93.47" width="131.23" height="87.9" style="fill:#f5f5f5"></rect><rect x="86.71" y="93.47" width="131.23" height="8.78" style="fill:#ebebeb"></rect><path d="M92.4,97.86a1.06,1.06,0,1,1-1.06-1A1,1,0,0,1,92.4,97.86Z" style="fill:#fff"></path><path d="M95.82,97.86a1.06,1.06,0,1,1-1.06-1A1,1,0,0,1,95.82,97.86Z" style="fill:#fff"></path><path d="M99.24,97.86a1.06,1.06,0,1,1-1.06-1A1,1,0,0,1,99.24,97.86Z" style="fill:#fff"></path><rect x="154.49" y="56.06" width="127.56" height="85.43" style="fill:#e0e0e0"></rect><rect x="154.49" y="56.06" width="127.56" height="8.53" style="fill:#e0e0e0"></rect><path d="M160,60.32a1,1,0,1,1-1-1A1,1,0,0,1,160,60.32Z" style="fill:#fff"></path><path d="M163.34,60.32a1,1,0,1,1-1-1A1,1,0,0,1,163.34,60.32Z" style="fill:#fff"></path><path d="M166.67,60.32a1,1,0,1,1-1-1A1,1,0,0,1,166.67,60.32Z" style="fill:#fff"></path><rect x="287.62" y="82.29" width="246.33" height="164.99" style="fill:#f5f5f5"></rect><rect x="287.62" y="82.29" width="246.33" height="16.48" style="fill:#ebebeb"></rect><path d="M298.29,90.53a2,2,0,1,1-2-1.85A1.92,1.92,0,0,1,298.29,90.53Z" style="fill:#fff"></path><path d="M304.71,90.53a2,2,0,1,1-2-1.85A1.92,1.92,0,0,1,304.71,90.53Z" style="fill:#fff"></path><path d="M311.14,90.53a2,2,0,1,1-2-1.85A1.92,1.92,0,0,1,311.14,90.53Z" style="fill:#fff"></path><rect x="217.41" y="118.77" width="246.33" height="164.99" style="fill:#f5f5f5"></rect><rect x="217.41" y="118.77" width="246.33" height="16.48" style="fill:#ebebeb"></rect><path d="M228.08,127a2,2,0,1,1-2-1.85A1.92,1.92,0,0,1,228.08,127Z" style="fill:#fff"></path><path d="M234.5,127a2,2,0,1,1-2-1.85A1.92,1.92,0,0,1,234.5,127Z" style="fill:#fff"></path><path d="M240.93,127a2,2,0,1,1-2-1.85A1.92,1.92,0,0,1,240.93,127Z" style="fill:#fff"></path></g><g id="freepik--Floor--inject-56"><path d="M641,449.61c0,.15-119.12.26-266,.26s-266-.11-266-.26,119.09-.26,266.05-.26S641,449.47,641,449.61Z" style="fill:#263238"></path></g><g id="freepik--Characters--inject-56"><path d="M538.45,186.93s-7.08-7.14-8.1-8.89c-5.28-9-28.47-47.91-28.47-47.91L489,138.83S515.52,186.48,521,193A127.41,127.41,0,0,0,534,206.1Z" style="fill:#ffbe9d"></path><path d="M242.37,151.23s8.83-15.31,13.25-14.44a21.76,21.76,0,0,1,8.32,4.07l-11.25,13.22Z" style="fill:#b78876"></path><polygon points="190.96 188.46 222.79 176.37 242.52 146.37 254.65 152.66 231.7 193.56 193.97 207.86 190.96 188.46" style="fill:#263238"></polygon><rect x="255.71" y="97.67" width="249.86" height="167.35" style="fill:#fafafa"></rect><rect x="255.71" y="97.67" width="249.86" height="16.72" style="fill:#455a64"></rect><path d="M266.53,106a2,2,0,1,1-2-1.88A1.95,1.95,0,0,1,266.53,106Z" style="fill:#fff"></path><path d="M273.05,106a2,2,0,1,1-2-1.88A2,2,0,0,1,273.05,106Z" style="fill:#fff"></path><path d="M279.57,106a2,2,0,1,1-2-1.88A2,2,0,0,1,279.57,106Z" style="fill:#fff"></path><path d="M505.57,265c0-1.7-.08-65.41-.21-167.35l.21.21-249.84.05h0l.26-.26c0,59.62,0,116.31,0,167.35l-.24-.24,249.86.24-249.86.23h-.24V265c0-51,0-107.73,0-167.35v-.26h.28l249.84,0h.21v.21C505.65,199.61,505.57,263.32,505.57,265Z" style="fill:#263238"></path><polygon points="327.77 181.74 325.02 181.74 325.02 181.24 327.27 181.24 327.27 178.99 327.77 178.99 327.77 181.74" style="fill:#263238"></polygon><path d="M319.87,181.74h-5.15v-.5h5.15Zm-10.3,0h-5.15v-.5h5.15Zm-10.3,0h-5.15v-.5h5.15Zm-10.3,0h-5.16v-.5H289Z" style="fill:#263238"></path><polygon points="278.66 181.74 275.91 181.74 275.91 178.99 276.41 178.99 276.41 181.24 278.66 181.24 278.66 181.74" style="fill:#263238"></polygon><path d="M276.41,173.84h-.5v-5.15h.5Zm0-10.3h-.5v-5.15h.5Zm0-10.31h-.5v-5.15h.5Zm0-10.3h-.5v-5.15h.5Z" style="fill:#263238"></path><polygon points="276.41 132.63 275.91 132.63 275.91 129.88 278.66 129.88 278.66 130.38 276.41 130.38 276.41 132.63" style="fill:#263238"></polygon><path d="M319.87,130.38h-5.15v-.5h5.15Zm-10.3,0h-5.15v-.5h5.15Zm-10.3,0h-5.15v-.5h5.15Zm-10.3,0h-5.16v-.5H289Z" style="fill:#263238"></path><polygon points="327.77 132.63 327.27 132.63 327.27 130.38 325.02 130.38 325.02 129.88 327.77 129.88 327.77 132.63" style="fill:#263238"></polygon><path d="M327.77,173.84h-.5v-5.15h.5Zm0-10.3h-.5v-5.15h.5Zm0-10.31h-.5v-5.15h.5Zm0-10.3h-.5v-5.15h.5Z" style="fill:#263238"></path><rect x="273.29" y="191.06" width="56.81" height="3.8" style="fill:#455a64"></rect><rect x="346.68" y="138.3" width="56.81" height="3.8" style="fill:#455a64"></rect><path d="M488,152.45c0,.15-31.63.26-70.65.26s-70.65-.11-70.65-.26,31.62-.26,70.65-.26S488,152.31,488,152.45Z" style="fill:#455a64"></path><path d="M488,160.75c0,.15-31.63.26-70.65.26s-70.65-.11-70.65-.26,31.62-.26,70.65-.26S488,160.61,488,160.75Z" style="fill:#455a64"></path><path d="M488,169.05c0,.14-31.63.26-70.65.26s-70.65-.12-70.65-.26,31.62-.26,70.65-.26S488,168.91,488,169.05Z" style="fill:#455a64"></path><path d="M488,177.35c0,.14-31.63.26-70.65.26s-70.65-.12-70.65-.26,31.62-.26,70.65-.26S488,177.21,488,177.35Z" style="fill:#455a64"></path><path d="M488,185.65c0,.14-31.63.26-70.65.26s-70.65-.12-70.65-.26,31.62-.26,70.65-.26S488,185.5,488,185.65Z" style="fill:#455a64"></path><path d="M401.84,194c0,.14-12.35.26-27.58.26s-27.58-.12-27.58-.26,12.34-.26,27.58-.26S401.84,193.8,401.84,194Z" style="fill:#455a64"></path><path d="M487,210.05c0,.15-20.79.26-46.44.26s-46.44-.11-46.44-.26,20.79-.26,46.44-.26S487,209.91,487,210.05Z" style="fill:#455a64"></path><path d="M487,218.86c0,.15-20.79.26-46.44.26s-46.44-.11-46.44-.26,20.79-.26,46.44-.26S487,218.72,487,218.86Z" style="fill:#455a64"></path><path d="M487,227.67c0,.15-20.79.26-46.44.26s-46.44-.11-46.44-.26,20.79-.26,46.44-.26S487,227.53,487,227.67Z" style="fill:#455a64"></path><path d="M487,236.48c0,.14-20.79.26-46.44.26s-46.44-.12-46.44-.26,20.79-.26,46.44-.26S487,236.34,487,236.48Z" style="fill:#455a64"></path><path d="M330.25,209.21c0,.14-12.39.26-27.68.26s-27.69-.12-27.69-.26,12.4-.26,27.69-.26S330.25,209.07,330.25,209.21Z" style="fill:#455a64"></path><path d="M330.25,216.13c0,.14-12.39.26-27.68.26s-27.69-.12-27.69-.26,12.4-.26,27.69-.26S330.25,216,330.25,216.13Z" style="fill:#455a64"></path><path d="M330.25,223.05c0,.14-12.39.26-27.68.26s-27.69-.12-27.69-.26,12.4-.26,27.69-.26S330.25,222.9,330.25,223.05Z" style="fill:#455a64"></path><path d="M330.25,230c0,.15-12.39.27-27.68.27s-27.69-.12-27.69-.27,12.4-.26,27.69-.26S330.25,229.82,330.25,230Z" style="fill:#455a64"></path><path d="M330.25,236.88c0,.15-12.39.26-27.68.26s-27.69-.11-27.69-.26,12.4-.26,27.69-.26S330.25,236.74,330.25,236.88Z" style="fill:#455a64"></path><rect x="346.64" y="205.85" width="40.31" height="39" style="fill:#455a64"></rect><polygon points="349.77 241.51 360.92 221.44 370.04 234.27 375.58 227.46 383.82 241.51 349.77 241.51" style="fill:#FF725E"></polygon><path d="M373.92,217.54a2.9,2.9,0,1,1-2.9-2.9A2.9,2.9,0,0,1,373.92,217.54Z" style="fill:#FF725E"></path><path d="M383.82,241.62s0-.06,0-.16V241c0-.41,0-1,0-1.75,0-1.55,0-3.78-.05-6.62,0-5.7-.05-13.81-.08-23.55l.16.16-34.05,0,.19-.19h0v8.75q0,4.31,0,8.4c0,5.46,0,10.63,0,15.38l-.16-.17,24.62.09,6.95,0,1.84,0h0l-1.81,0-6.91,0-24.73.09h-.17v-.17c0-4.75,0-9.92,0-15.38v-8.4c0-1.43,0-2.88,0-4.34v-4.41h0c-.17.17.24-.24.2-.19l34.05,0H384v.17c0,9.78-.07,17.93-.09,23.65,0,2.82,0,5.05,0,6.59,0,.74,0,1.31,0,1.72,0,.18,0,.32,0,.44S383.83,241.62,383.82,241.62Z" style="fill:#263238"></path><rect x="259.14" y="124.12" width="56.96" height="55.1" style="fill:#FF725E"></rect><polygon points="263.56 174.51 279.31 146.15 292.2 164.28 300.03 154.65 311.68 174.51 263.56 174.51" style="fill:#fafafa"></polygon><circle cx="293.59" cy="140.64" r="4.1" style="fill:#fafafa"></circle><path d="M311.68,174.66a2,2,0,0,1,0-.22c0-.17,0-.38,0-.65,0-.58,0-1.41,0-2.48,0-2.18,0-5.34-.06-9.36,0-8-.07-19.51-.12-33.27l.23.24-48.12,0c-.06.06.51-.51.27-.26h0v6.23c0,2.06,0,4.11,0,6.13v11.88c0,7.71,0,15,0,21.72l-.23-.24,34.79.13,9.81.06,2.61,0,.67,0h0l-.65,0-2.56,0-9.76.06-34.94.12h-.24v-.24c0-6.71,0-14,0-21.72V141.06c0-2,0-4.07,0-6.13V128.7h0l.28-.28,48.12,0h.23v.23c-.05,13.83-.09,25.34-.12,33.42,0,4,0,7.14-.06,9.31,0,1.05,0,1.86,0,2.43,0,.26,0,.46,0,.62A1.23,1.23,0,0,1,311.68,174.66Z" style="fill:#fafafa"></path><path d="M275,150.6a99.74,99.74,0,0,0,6.55-8.31c2.35-3.71,2-3.94,1.55-4.15-1.27-.57-4.38,6.36-4.57,4.46s4.79-8,3.43-8.55c-1.76-.71-4.89,6.61-5.2,7.21s-1.17.15-.87-.38c.45-.75,4.91-8.79,3.19-9.51-1-.39-1.47,1.42-1.47,1.42s-3.63,7.85-4.43,7.48,1.16-5.05,1.94-6.58.37-2.51-.57-2.31c-.65.14-3.14,4.76-3.87,6.29s-2.67,5.77-3.39,2.86-2.34-4.88-3.14-5.11-1.38.82-.81,1.55a11.18,11.18,0,0,1,1.25,2.75,7.18,7.18,0,0,1,.41,2.38c0,.71,0,1.33-.06,1.89l-.28,5.95,6.8,4.66Z" style="fill:#b78876"></path><path d="M195,333,202,440.83,218.39,439s.4-105.17-.37-105.11S195,333,195,333Z" style="fill:#b78876"></path><polygon points="159.36 329.86 140.94 436.81 155.5 439.02 180.99 334.94 159.36 329.86" style="fill:#b78876"></polygon><path d="M182.46,150l-.11,37.09,15.91.76.46-9s5.65,1.12,7.11-4.13c.93-3.35.7-29.26.7-29.26Z" style="fill:#b78876"></path><path d="M210.12,149.1c-1.07,2.22-6.18,6.27-6.18,6.27l-2.3,6.18c-2-1.56-4.69-1.47-5.2,2-.37,2.55,2.79,3.06,2.79,3.06-1.84,3.13-3.09,5.67-5.77,8.65-2.9,3.22-4.52,3.55-7.67,3.6h-3.47s-7.09-5.93-5.69-21.55,14.2-12.67,18.8-15C196,142.1,213.7,141.7,210.12,149.1Z" style="fill:#263238"></path><path d="M176.29,160.41a7.61,7.61,0,0,0-8.52.88c-2.29,2-3.12,5.17-3.68,8.17s-1,6.15-2.86,8.58a5.35,5.35,0,0,0-1.2,2,2.43,2.43,0,0,0,1.63,2.63,3.49,3.49,0,0,0,3.18-.6,6.5,6.5,0,0,0,2-2.69,3.3,3.3,0,0,0,3.81,3.18c1.81-.38,2.9-2.22,3.48-4A17,17,0,0,0,175,172c-.15-2.05-.66-4.1-.32-6.13s1.94-4.06,4-4" style="fill:#263238"></path><path d="M201.64,161.55s.86,4.63-1.29,5.1a3.85,3.85,0,0,1-2-.28l-2.16,4.78s-1.38,6.87,2.58,7.69c3.66.75,7.46.26,7.83-5.54l.11-4.19s-2.91.66-3.19-.67S203,158,203,158Z" style="fill:#263238"></path><path d="M160.89,173.85a2.08,2.08,0,0,0-1.23.41,1.45,1.45,0,0,0-.55,1.3,1.51,1.51,0,0,0,1.18,1.33,2.17,2.17,0,0,0,2.06-.88,6.26,6.26,0,0,0,1.16-2.57c.46-2,.18-4.27.23-6.68a11,11,0,0,1,.58-3.53,6.78,6.78,0,0,1,1.91-2.75,7.46,7.46,0,0,1,5.24-1.81,8.53,8.53,0,0,1,3.62,1,7.43,7.43,0,0,1,.87.54c.18.14.28.22.27.23s-.43-.24-1.23-.59a8.94,8.94,0,0,0-3.54-.8,7.29,7.29,0,0,0-4.91,1.81,6.33,6.33,0,0,0-1.75,2.57,10.52,10.52,0,0,0-.54,3.36c0,2.36.22,4.69-.28,6.78a6.64,6.64,0,0,1-1.3,2.74,2.57,2.57,0,0,1-2.47,1,1.81,1.81,0,0,1-1.39-1.67,1.64,1.64,0,0,1,.72-1.48A1.39,1.39,0,0,1,160.89,173.85Z" style="fill:#263238"></path><path d="M202,149.25s.33.05.89.07a4.51,4.51,0,0,0,2.28-.53,3.74,3.74,0,0,0,1.88-2.72,3.29,3.29,0,0,0-.27-1.94,4,4,0,0,0-1.43-1.59,6.32,6.32,0,0,0-4.1-.86,22.19,22.19,0,0,0-3.51.7,10.66,10.66,0,0,1-3.31.56,4.93,4.93,0,0,1,.87-.24c.55-.14,1.35-.37,2.34-.68a20.61,20.61,0,0,1,3.57-.82,6.61,6.61,0,0,1,4.43.91,4.33,4.33,0,0,1,1.6,1.8,3.82,3.82,0,0,1,.29,2.24,4,4,0,0,1-2.19,3,4.27,4.27,0,0,1-2.46.41A1.86,1.86,0,0,1,202,149.25Z" style="fill:#263238"></path><path d="M177.42,170.41h.44a7.53,7.53,0,0,0,1.26-.15,9.07,9.07,0,0,0,4.06-2.16,22.54,22.54,0,0,0,4.12-5.53c1.35-2.21,2.83-4.82,5.36-6.57s5.56-2.05,8.1-2.56a15.13,15.13,0,0,0,6.41-2.39,7,7,0,0,0,2.61-3.75,5.68,5.68,0,0,0,.14-1.69,3.89,3.89,0,0,1-.07,1.71,6.86,6.86,0,0,1-2.59,3.84,15.16,15.16,0,0,1-6.47,2.47c-2.54.52-5.49.86-8,2.54s-4,4.29-5.31,6.5a22.85,22.85,0,0,1-4.19,5.54,8.85,8.85,0,0,1-4.15,2.13A5.08,5.08,0,0,1,177.42,170.41Z" style="fill:#fff"></path><path d="M179,174.34l.32-.21c.22-.13.53-.33.92-.6a21.71,21.71,0,0,0,3.11-2.55,21.28,21.28,0,0,0,3.61-4.73c1.12-1.94,1.93-4.35,3.63-6.38s4.25-2.89,6.4-3.47a39.05,39.05,0,0,0,5.73-1.7,9.66,9.66,0,0,0,3.31-2.22,9.13,9.13,0,0,0,.89-1.18,5.37,5.37,0,0,1-.83,1.23,9.22,9.22,0,0,1-3.31,2.3,37.59,37.59,0,0,1-5.74,1.75c-2.14.59-4.6,1.43-6.29,3.43s-2.48,4.38-3.62,6.34a20.94,20.94,0,0,1-3.68,4.73,20.3,20.3,0,0,1-3.16,2.52A14.39,14.39,0,0,1,179,174.34Z" style="fill:#fff"></path><path d="M168.51,181.56a9.66,9.66,0,0,0,.51-.89,7.38,7.38,0,0,0,.7-2.68,14.2,14.2,0,0,0-.36-4.1,43.82,43.82,0,0,1-.92-5,8.16,8.16,0,0,1,1-5,5.93,5.93,0,0,1,3.31-2.47,6,6,0,0,1,2.8-.19,4.09,4.09,0,0,1,1,.3s-.35-.11-1-.22a6,6,0,0,0-2.74.25A5.89,5.89,0,0,0,169.6,164a8,8,0,0,0-.95,4.86,44.82,44.82,0,0,0,.9,5,14.45,14.45,0,0,1,.32,4.16,7.29,7.29,0,0,1-.77,2.7A4.08,4.08,0,0,1,168.51,181.56Z" style="fill:#fff"></path><path d="M162,182.53a1.74,1.74,0,0,0,1.09-.33,5.2,5.2,0,0,0,1.63-2.65,20.39,20.39,0,0,0,.91-4.63c.18-1.77.23-3.74.56-5.78a13,13,0,0,1,2-5.44,6.92,6.92,0,0,1,3.78-2.81,5.51,5.51,0,0,1,3.19,0,3.59,3.59,0,0,1,1.06.5,9.47,9.47,0,0,0-1.09-.43,5.57,5.57,0,0,0-3.12.09,6.81,6.81,0,0,0-3.66,2.78,13,13,0,0,0-2,5.36c-.32,2-.38,4-.57,5.77a20.09,20.09,0,0,1-1,4.66,5.13,5.13,0,0,1-1.73,2.67A1.4,1.4,0,0,1,162,182.53Z" style="fill:#fff"></path><path d="M176.36,163.72c-.15,0-.39-.92-.54-2.1a9.35,9.35,0,0,1-.11-2l.1.1c.08-.05,0,0,0,0s0,0,0,.06,0,0-.09,0-.11-.19.12-.26h0l.05.11a9.38,9.38,0,0,1,.4,1.91A4.71,4.71,0,0,1,176.36,163.72Z" style="fill:#FF725E"></path><polygon points="166.49 268.21 150.24 348.87 179.78 353.89 190.42 296.01 194.96 353.89 222.31 350.01 215.31 264.16 166.49 268.21" style="fill:#FF725E"></polygon><path d="M206.73,295a5.81,5.81,0,0,1-1.27.16l-3.47.26c-2.93.22-7,.54-11.44,1s-8.48.92-11.4,1.28l-3.45.42a5.84,5.84,0,0,1-1.28.09,6.17,6.17,0,0,1,1.25-.29c.8-.16,2-.36,3.43-.58,2.91-.46,6.94-1,11.4-1.44s8.53-.7,11.47-.82c1.46-.07,2.65-.1,3.48-.1A5.59,5.59,0,0,1,206.73,295Z" style="fill:#263238"></path><path d="M219.17,311.55c0,.37,4.26,6.78,4.26,6.78l-2.13.95s4.62,6.38-.31,14.58Z" style="fill:#FF725E"></path><path d="M159.69,306.82c-.35.23-5.22,7.83-5.22,7.83h.95s-5.68,7.32-1.24,14.64Z" style="fill:#FF725E"></path><g style="opacity:0.2"><path d="M219.17,311.55c0,.37,4.26,6.78,4.26,6.78l-2.13.95s4.62,6.38-.31,14.58Z"></path><path d="M159.69,306.82c-.35.23-5.22,7.83-5.22,7.83h.95s-5.68,7.32-1.24,14.64Z"></path></g><path d="M222.24,344.94a4.82,4.82,0,0,1-1.08.21l-2.94.41-9.71,1.33-9.69,1.44-2.94.42a4.26,4.26,0,0,1-1.09.09,5.22,5.22,0,0,1,1.05-.29c.69-.15,1.68-.35,2.92-.59,2.46-.46,5.89-1,9.68-1.58s7.24-.94,9.74-1.18c1.25-.12,2.26-.21,3-.25A4.28,4.28,0,0,1,222.24,344.94Z" style="fill:#263238"></path><path d="M180.24,350.29a4.32,4.32,0,0,1-1.16-.17l-3.11-.66-10.24-2.21-10.26-2.13-3.11-.67a5.75,5.75,0,0,1-1.13-.3,4.45,4.45,0,0,1,1.17.11c.74.1,1.81.27,3.14.5,2.64.45,6.29,1.13,10.3,2s7.61,1.7,10.22,2.36c1.3.33,2.35.61,3.07.82A5.86,5.86,0,0,1,180.24,350.29Z" style="fill:#263238"></path><path d="M187.9,298.16c-.14,0-.18-.39-.09-.79s.27-.71.41-.68.18.38.1.79S188,298.19,187.9,298.16Z" style="fill:#263238"></path><path d="M186.62,304.07c-.14,0-.11-.72.07-1.53s.43-1.46.57-1.43.11.72-.06,1.54S186.76,304.1,186.62,304.07Z" style="fill:#263238"></path><path d="M185.34,310c-.14,0-.11-.71.07-1.53s.43-1.45.57-1.42.11.71-.07,1.53S185.48,310,185.34,310Z" style="fill:#263238"></path><path d="M184.06,315.9c-.14,0-.11-.72.06-1.54s.44-1.45.58-1.42.11.72-.07,1.53S184.2,315.93,184.06,315.9Z" style="fill:#263238"></path><path d="M182.78,321.81c-.14,0-.11-.72.06-1.53s.44-1.46.58-1.43.11.72-.07,1.54S182.92,321.84,182.78,321.81Z" style="fill:#263238"></path><path d="M181.5,327.72c-.14,0-.12-.72.06-1.53s.44-1.46.58-1.42.11.71-.07,1.53S181.64,327.75,181.5,327.72Z" style="fill:#263238"></path><path d="M180.21,333.63c-.14,0-.11-.71.07-1.53s.43-1.45.58-1.42.11.71-.07,1.53S180.36,333.66,180.21,333.63Z" style="fill:#263238"></path><path d="M178.93,339.55c-.14,0-.11-.72.07-1.54s.43-1.45.57-1.42.12.72-.06,1.53S179.07,339.58,178.93,339.55Z" style="fill:#263238"></path><path d="M177.65,345.46c-.14,0-.11-.72.07-1.53s.43-1.46.57-1.43.11.72-.06,1.54S177.79,345.49,177.65,345.46Z" style="fill:#263238"></path><path d="M176.69,349.88c-.14,0-.18-.38-.09-.79s.27-.7.41-.67.19.38.1.79S176.83,349.91,176.69,349.88Z" style="fill:#263238"></path><path d="M213.51,271.63c-.15,0-.28-.32-.31-.73s.07-.75.21-.76.28.31.31.73S213.65,271.62,213.51,271.63Z" style="fill:#263238"></path><path d="M213.91,277.49c-.14,0-.3-.64-.36-1.44s0-1.48.16-1.49.3.64.36,1.45S214.05,277.48,213.91,277.49Z" style="fill:#263238"></path><path d="M214.33,283.35c-.14,0-.3-.64-.36-1.44s0-1.48.15-1.49.31.64.37,1.45S214.48,283.34,214.33,283.35Z" style="fill:#263238"></path><path d="M214.78,289.21c-.14,0-.31-.64-.37-1.45s0-1.47.15-1.48.31.63.37,1.44S214.92,289.2,214.78,289.21Z" style="fill:#263238"></path><path d="M215.25,295.06c-.14,0-.31-.63-.38-1.44s0-1.47.14-1.48.32.63.38,1.44S215.39,295.05,215.25,295.06Z" style="fill:#263238"></path><path d="M215.74,300.92c-.14,0-.31-.64-.38-1.45s0-1.47.13-1.48.32.63.39,1.44S215.88,300.9,215.74,300.92Z" style="fill:#263238"></path><path d="M216.25,306.77c-.14,0-.31-.63-.39-1.44s0-1.48.13-1.49.32.63.39,1.44S216.4,306.75,216.25,306.77Z" style="fill:#263238"></path><path d="M216.79,312.62c-.15,0-.32-.63-.4-1.44s0-1.47.13-1.49.32.63.39,1.44S216.93,312.6,216.79,312.62Z" style="fill:#263238"></path><path d="M217.34,318.46c-.14,0-.32-.63-.39-1.43s0-1.48.11-1.49.33.63.4,1.44S217.49,318.45,217.34,318.46Z" style="fill:#263238"></path><path d="M217.92,324.31c-.14,0-.32-.63-.4-1.44s0-1.47.11-1.48.33.63.41,1.43S218.07,324.3,217.92,324.31Z" style="fill:#263238"></path><path d="M218.52,330.15c-.14,0-.32-.62-.41-1.43s0-1.47.11-1.49.33.63.41,1.43S218.67,330.14,218.52,330.15Z" style="fill:#263238"></path><path d="M219.15,336c-.15,0-.33-.62-.42-1.43s0-1.47.1-1.49.33.63.42,1.44S219.29,336,219.15,336Z" style="fill:#263238"></path><path d="M219.79,341.83c-.14,0-.33-.62-.42-1.43s-.05-1.47.1-1.49.33.63.42,1.43S219.94,341.81,219.79,341.83Z" style="fill:#263238"></path><path d="M220.29,346.24c-.14,0-.29-.3-.34-.72s0-.75.17-.77.3.3.35.72S220.44,346.22,220.29,346.24Z" style="fill:#263238"></path><polygon points="141.22 433.64 143.88 419.73 159.93 422.55 156.06 436.73 141.22 433.64" style="fill:#f0f0f0"></polygon><polygon points="141.22 433.64 138.75 444.64 155.78 446.75 156.39 435.85 141.22 433.64" style="fill:#455a64"></polygon><path d="M148.91,434.18a50,50,0,0,1-1.63,10,25.77,25.77,0,0,1,.57-5.05A25.06,25.06,0,0,1,148.91,434.18Z" style="fill:#263238"></path><path d="M155.85,445.55a13.52,13.52,0,0,1-2.47-.31l-5.9-1c-2.31-.38-4.4-.77-5.9-1.11a10.93,10.93,0,0,1-2.4-.66,13.43,13.43,0,0,1,2.47.31l5.91,1c2.31.38,4.39.77,5.89,1.1A11.23,11.23,0,0,1,155.85,445.55Z" style="fill:#263238"></path><path d="M159.3,424.85a10.45,10.45,0,0,1-2.35-.26c-1.44-.22-3.42-.59-5.6-1l-5.59-1.07a11.18,11.18,0,0,1-2.31-.54,10.84,10.84,0,0,1,2.36.17c1.45.19,3.45.51,5.63.92s4.16.84,5.58,1.16A10.75,10.75,0,0,1,159.3,424.85Z" style="fill:#263238"></path><path d="M158.64,426.57a10.73,10.73,0,0,1-2.34-.22c-1.43-.2-3.4-.52-5.57-.89s-4.14-.75-5.55-1a10.49,10.49,0,0,1-2.28-.58,10.66,10.66,0,0,1,2.33.22c1.44.2,3.41.51,5.59.89s4.13.75,5.55,1.05A10.06,10.06,0,0,1,158.64,426.57Z" style="fill:#FF725E"></path><path d="M202.05,443.16c-.19-1.23-1.06-18-1.06-18l17.81-1.37.62,17.31Z" style="fill:#f0f0f0"></path><path d="M220.73,442.77l-.26-2-18.42,2.35.78,6.45,1.15-.06c5.09-.36,25.88-2.16,29.14-3.6C236.75,444.33,220.73,442.77,220.73,442.77Z" style="fill:#455a64"></path><path d="M209.46,448.64a6.39,6.39,0,0,0-2.83-3.62,6.26,6.26,0,0,0-4.45-.8l.64,5.13Z" style="fill:#455a64"></path><path d="M228.59,443.8s5.66.9,5.09,1.88-21.51,3.59-30.85,3.93l0-.41,24.45-2.83S227.53,444,228.59,443.8Z" style="fill:#455a64"></path><path d="M202.52,449.23h.32l.91-.06,3.35-.27c2.83-.25,6.73-.64,11-1.18s8.19-1.1,11-1.54l3.32-.56.9-.16a1.28,1.28,0,0,0,.31-.08l-.32,0-.91.13-3.32.48c-2.81.41-6.69.95-11,1.48s-8.2.95-11,1.24l-3.35.35-.9.1A1.19,1.19,0,0,0,202.52,449.23Z" style="fill:#263238"></path><path d="M227.29,446.65a8.12,8.12,0,0,1,.43-1.67,7.21,7.21,0,0,1,1-1.41,2.46,2.46,0,0,0-1.19,1.32A2.56,2.56,0,0,0,227.29,446.65Z" style="fill:#263238"></path><path d="M221.54,444.58c.06,0,.28-.32.49-.77a2,2,0,0,0,.29-.88c-.06,0-.28.32-.49.78S221.48,444.55,221.54,444.58Z" style="fill:#263238"></path><path d="M220,444s.31-.19.59-.51.47-.62.42-.66-.31.19-.59.51S219.91,443.94,220,444Z" style="fill:#263238"></path><path d="M218.8,442.37a4.28,4.28,0,1,0,.95-.22A2.26,2.26,0,0,0,218.8,442.37Z" style="fill:#263238"></path><path d="M218.33,441.19a1.88,1.88,0,0,0,1.1.17,2,2,0,0,0,1.09-.28,5.86,5.86,0,0,0-1.1.06A5,5,0,0,0,218.33,441.19Z" style="fill:#263238"></path><path d="M222,442.9a3.17,3.17,0,0,0,1.18-.15,7.21,7.21,0,0,0,1.22-.43,3.18,3.18,0,0,0,.68-.39.66.66,0,0,0,.25-.4.48.48,0,0,0-.24-.45,2.18,2.18,0,0,0-2.59,1,2,2,0,0,0-.29.84.72.72,0,0,0,0,.32,3.23,3.23,0,0,1,.41-1.07,2.16,2.16,0,0,1,.93-.78,1.82,1.82,0,0,1,1.41-.08c.21.12.16.34,0,.49a3.59,3.59,0,0,1-.63.37,8.91,8.91,0,0,1-1.17.47C222.41,442.81,222,442.87,222,442.9Z" style="fill:#263238"></path><path d="M222.28,442.92a1.22,1.22,0,0,0,0-.83,2,2,0,0,0-.43-.82,1.17,1.17,0,0,0-1.06-.48.48.48,0,0,0-.29.59,1.39,1.39,0,0,0,.26.5,3.53,3.53,0,0,0,.65.64,1.74,1.74,0,0,0,.73.4s-.26-.18-.63-.52a4.15,4.15,0,0,1-.58-.64c-.19-.23-.36-.67-.07-.76a1.07,1.07,0,0,1,.84.41,2.11,2.11,0,0,1,.43.72A6,6,0,0,1,222.28,442.92Z" style="fill:#263238"></path><path d="M202.27,444.16s.52-.12,1.36-.12a5.78,5.78,0,0,1,5.28,3.23c.38.75.47,1.28.51,1.27s0-.14,0-.37a4.81,4.81,0,0,0-.33-1,5.61,5.61,0,0,0-5.42-3.32,5,5,0,0,0-1,.15A1.52,1.52,0,0,0,202.27,444.16Z" style="fill:#263238"></path><path d="M211.55,446.56a10.13,10.13,0,0,0,2.71-.07,10.74,10.74,0,0,0,2.66-.54c0-.07-1.21.15-2.69.32S211.55,446.5,211.55,446.56Z" style="fill:#263238"></path><path d="M208,447c0,.06.13.25.29.51s.25.49.32.48.05-.3-.13-.6S208,447,208,447Z" style="fill:#263238"></path><path d="M206.39,445.49c0,.05.1.22.32.39s.41.27.45.22-.1-.23-.32-.4S206.43,445.44,206.39,445.49Z" style="fill:#263238"></path><path d="M204.35,445c0,.06.27,0,.55.09s.49.18.54.13-.15-.28-.5-.35S204.33,444.9,204.35,445Z" style="fill:#263238"></path><path d="M202.93,444.77c0,.06.1.14.26.18s.3,0,.32,0-.11-.14-.27-.18S202.94,444.71,202.93,444.77Z" style="fill:#263238"></path><path d="M218.57,426.78a76.82,76.82,0,0,1-8.82.69,72.06,72.06,0,0,1-8.85.18,78.7,78.7,0,0,1,8.83-.7A73,73,0,0,1,218.57,426.78Z" style="fill:#263238"></path><path d="M218.57,429a73.23,73.23,0,0,1-8.67.77,74.41,74.41,0,0,1-8.71.25,73.27,73.27,0,0,1,8.68-.77A71.71,71.71,0,0,1,218.57,429Z" style="fill:#FF725E"></path><path d="M164,232.73l1.14,22,.19,19.28,50.75-3.72-2.18-35.47c-.33-8.3-.49-16.95-.69-24.61,3.46-1.31,35.69-13.51,37.9-13.83s23.44-39.36,23.44-39.36c.67-4.68-12-7.69-12-7.69s-19.71,29.74-21.38,31.41-32.54,4.92-32.55,4.92c-9.47-2.14-33.47-2.49-39.26,1.78C169.31,187.47,156.18,194,164,232.73Z" style="fill:#455a64"></path><path d="M243.89,187.46a9.72,9.72,0,0,1-1.61-3.26,23.4,23.4,0,0,1-1.16-3.43,9.64,9.64,0,0,1,1.61,3.26A23.84,23.84,0,0,1,243.89,187.46Z" style="fill:#263238"></path><path d="M246.1,184.93a16.85,16.85,0,0,1-2.64-1.89,8.39,8.39,0,0,1-2.34-2.27,16.6,16.6,0,0,1,2.64,1.89A8.22,8.22,0,0,1,246.1,184.93Z" style="fill:#263238"></path><path d="M213.64,185.27a27.16,27.16,0,0,0-3,.69,11.53,11.53,0,0,0-7.92,11.11,27.64,27.64,0,0,0,.31,3,2.31,2.31,0,0,1-.3-.78,10.22,10.22,0,0,1-.35-2.25,11.32,11.32,0,0,1,8.16-11.44,9.65,9.65,0,0,1,2.24-.4A2.31,2.31,0,0,1,213.64,185.27Z" style="fill:#263238"></path><path d="M198.48,184.56a68.17,68.17,0,0,1-8.08.3,64.71,64.71,0,0,1-8.08-.18,68.17,68.17,0,0,1,8.08-.3A64.71,64.71,0,0,1,198.48,184.56Z" style="fill:#263238"></path><path d="M190.72,203.46a6.28,6.28,0,0,1,.36.76,6.2,6.2,0,0,0,1.28,2,3.09,3.09,0,0,0,1.47.77,2.2,2.2,0,0,0,1.82-.5c.59-.43,1.09-1.06,1.84-1.54a3.62,3.62,0,0,1,2.7-.42,4.36,4.36,0,0,1,2.54,1.6,4.45,4.45,0,0,1,.81,3.16,5.54,5.54,0,0,1-1.45,3.17,13.35,13.35,0,0,1-3,2.11,5.59,5.59,0,0,0-2.55,2.51,12.93,12.93,0,0,0-.48,3.83,6.11,6.11,0,0,1-.48,2.06,4.92,4.92,0,0,1-1.33,1.71,4.6,4.6,0,0,1-4.22.85,4.89,4.89,0,0,1-1.94-1.11,6.42,6.42,0,0,1-1.24-1.78c-.63-1.22-1.2-2.57-2.42-2.91s-2.47.34-3.85.31a3.64,3.64,0,0,1-3.19-2.18,3.54,3.54,0,0,1,.56-3.63,3.39,3.39,0,0,1,1.49-1.06,14,14,0,0,1,1.63-.47,4.43,4.43,0,0,0,1.42-.59,1.84,1.84,0,0,0,.76-1.14,8,8,0,0,0-.33-2.82,4.84,4.84,0,0,1,1.63-4.7,4.53,4.53,0,0,1,3.66-1,4.76,4.76,0,0,1,2.21,1,2.7,2.7,0,0,1,.58.62s-.2-.21-.64-.53a4.77,4.77,0,0,0-2.18-.87,4.33,4.33,0,0,0-3.44,1,4.55,4.55,0,0,0-1.46,4.41,8.27,8.27,0,0,1,.37,3,2.31,2.31,0,0,1-.91,1.4,4.65,4.65,0,0,1-1.56.66,4.9,4.9,0,0,0-2.87,1.41,3.07,3.07,0,0,0-.48,3.15,3.14,3.14,0,0,0,2.76,1.87c1.21.06,2.5-.68,4-.3a3.23,3.23,0,0,1,1.71,1.32,19.73,19.73,0,0,1,1,1.84,6,6,0,0,0,1.14,1.64,4.33,4.33,0,0,0,1.73,1,4.19,4.19,0,0,0,4.93-2.28,5.44,5.44,0,0,0,.44-1.88,13,13,0,0,1,.53-4,6.05,6.05,0,0,1,2.76-2.72,13.62,13.62,0,0,0,2.91-2,5.12,5.12,0,0,0,1.35-2.91,3.84,3.84,0,0,0-3-4.35,3.3,3.3,0,0,0-2.45.34c-.69.43-1.21,1-1.83,1.49a2.51,2.51,0,0,1-2.05.51,3.13,3.13,0,0,1-1.56-.87,6,6,0,0,1-1.24-2.08c-.1-.26-.17-.46-.21-.59S190.71,203.46,190.72,203.46Z" style="fill:#263238"></path><path d="M215.1,248.3a1,1,0,0,1-.44.1,4.14,4.14,0,0,1-1.27-.06,4.74,4.74,0,0,1-1.86-.85,5.91,5.91,0,0,1-1.63-2.13,6.4,6.4,0,0,0-1.78-2.49c-.91-.64-2.14-.3-3.41,0a4.1,4.1,0,0,1-2.08-.07,3.63,3.63,0,0,1-1.78-1.29,3.38,3.38,0,0,1-.7-2.17,3.71,3.71,0,0,1,2.79-3.43c.72-.22,1.43-.34,2-.6a2,2,0,0,0,1.25-1.27,3.88,3.88,0,0,0-.07-1.85,12.18,12.18,0,0,1-.33-1.9,4.71,4.71,0,0,1,.28-1.84,4.9,4.9,0,0,1,2.08-2.53,4.45,4.45,0,0,1,2.63-.61,4.79,4.79,0,0,1,2,.57,4,4,0,0,1,1,.76,1.55,1.55,0,0,1,.28.35,7.78,7.78,0,0,0-1.39-.93,4.8,4.8,0,0,0-1.88-.46,4.23,4.23,0,0,0-2.42.63,4.62,4.62,0,0,0-1.86,2.37,4.23,4.23,0,0,0-.24,1.67,13.18,13.18,0,0,0,.35,1.82,4.26,4.26,0,0,1,.08,2.08,2.5,2.5,0,0,1-1.53,1.61c-1.36.56-2.93.55-3.8,1.7a3,3,0,0,0-.12,3.73,3.23,3.23,0,0,0,1.52,1.12,3.62,3.62,0,0,0,1.85.07,19.1,19.1,0,0,1,1.89-.31,2.91,2.91,0,0,1,1.83.46,6.62,6.62,0,0,1,1.88,2.68,5.82,5.82,0,0,0,1.48,2.08,4.81,4.81,0,0,0,1.72.87A7.36,7.36,0,0,0,215.1,248.3Z" style="fill:#263238"></path><path d="M168.16,188.05a4.49,4.49,0,0,0,1.52.88,2.15,2.15,0,0,0,1.9-.36,25.54,25.54,0,0,1,2.18-1.77,3.85,3.85,0,0,1,3.44,0,4.52,4.52,0,0,1,1.57,1.2,4.22,4.22,0,0,1,.84,1.92,5.43,5.43,0,0,1-1.14,4.23c-1,1.25-2.49,1.89-3.79,2.73a6,6,0,0,0-1.66,1.49,4.26,4.26,0,0,0-.71,2c-.18,1.43,0,2.93-.54,4.3a4.76,4.76,0,0,1-2.86,2.74,4.61,4.61,0,0,1-3.45-.23,3.71,3.71,0,0,1-2-2,7.43,7.43,0,0,1,0-2.14,1.33,1.33,0,0,0-.4-1.15c-.22-.19-.39-.23-.38-.26a.86.86,0,0,1,.44.18,1.39,1.39,0,0,1,.54,1.23,8.33,8.33,0,0,0,.12,2.06,3.41,3.41,0,0,0,1.86,1.79,4.2,4.2,0,0,0,3.15.16,4.27,4.27,0,0,0,2.56-2.5c.47-1.23.31-2.68.48-4.2a4.82,4.82,0,0,1,.8-2.23,6.36,6.36,0,0,1,1.8-1.63c1.35-.86,2.78-1.49,3.67-2.61a5,5,0,0,0,1.07-3.83,3.76,3.76,0,0,0-.73-1.71,4,4,0,0,0-1.39-1.1,3.47,3.47,0,0,0-3.09-.05c-.87.45-1.46,1.24-2.19,1.69a2.39,2.39,0,0,1-2.12.3,2.93,2.93,0,0,1-1.16-.71A1.32,1.32,0,0,1,168.16,188.05Z" style="fill:#263238"></path><path d="M231.27,188.73a5.14,5.14,0,0,1,.51,1,4.67,4.67,0,0,0,1.86,2.18,2.2,2.2,0,0,0,1.85.16,6.74,6.74,0,0,0,1.82-1.4,3.64,3.64,0,0,1,2.55-1,4.4,4.4,0,0,1,2.78,1,4.12,4.12,0,0,1,1.46,2.57,5.29,5.29,0,0,1-.32,2.73,5.49,5.49,0,0,1-1.4,2,6.69,6.69,0,0,1-1.83,1.12,9.68,9.68,0,0,0-2.63,1.38c-.52.46-.69.83-.74.8s0-.1.11-.27a2.89,2.89,0,0,1,.49-.68,8.62,8.62,0,0,1,2.61-1.56,6.7,6.7,0,0,0,1.69-1.1,5.29,5.29,0,0,0,1.25-1.9,4.79,4.79,0,0,0,.27-2.47,3.63,3.63,0,0,0-1.29-2.26,4,4,0,0,0-2.45-.9,3.18,3.18,0,0,0-2.24.9,7,7,0,0,1-2,1.45,2.55,2.55,0,0,1-2.18-.25,4.72,4.72,0,0,1-1.87-2.42A4.19,4.19,0,0,1,231.27,188.73Z" style="fill:#263238"></path><path d="M257.17,157.64a5.6,5.6,0,0,1-.49,1,4.63,4.63,0,0,0-.64,2.8,2.15,2.15,0,0,0,1,1.58,6.77,6.77,0,0,0,2.22.62,3.68,3.68,0,0,1,2.36,1.42,4.46,4.46,0,0,1,.85,2.84,4.16,4.16,0,0,1-1.2,2.71,5.24,5.24,0,0,1-2.38,1.37,5.62,5.62,0,0,1-2.47.09,6.79,6.79,0,0,1-2-.8,9.77,9.77,0,0,0-2.67-1.29c-.69-.13-1.09-.06-1.09-.11s.09,0,.28-.08a3.21,3.21,0,0,1,.84,0,8.62,8.62,0,0,1,2.82,1.17,6.62,6.62,0,0,0,1.89.7,5.37,5.37,0,0,0,2.27-.14,4.85,4.85,0,0,0,2.14-1.26,3.67,3.67,0,0,0,1-2.38,4,4,0,0,0-.74-2.5,3.22,3.22,0,0,0-2.06-1.26,6.92,6.92,0,0,1-2.35-.73,2.57,2.57,0,0,1-1.1-1.89,4.63,4.63,0,0,1,.83-2.95A3.76,3.76,0,0,1,257.17,157.64Z" style="fill:#263238"></path><path d="M226.19,205.35a6.29,6.29,0,0,1-1.06-.51h0a4.63,4.63,0,0,0-2.39.15,6.9,6.9,0,0,1-1.73.23,3.55,3.55,0,0,1-1.93-.71,3.62,3.62,0,0,1-1.31-1.88,3.61,3.61,0,0,1,2.27-4.28c.85-.33,1.76-.44,2.54-.79a2,2,0,0,0,1.07-1.07,3,3,0,0,0,.07-1.55,9.15,9.15,0,0,1-.38-3.25,4.69,4.69,0,0,1,7.23-3.34,3.73,3.73,0,0,1,.77.66c.15.18.22.27.21.29a9.23,9.23,0,0,0-1.09-.77,4.72,4.72,0,0,0-3.44-.48,4.47,4.47,0,0,0-3.21,3.71,9.5,9.5,0,0,0,.41,3.1,3.41,3.41,0,0,1-.09,1.81,2.43,2.43,0,0,1-1.33,1.36c-.89.4-1.8.5-2.58.8a3.16,3.16,0,0,0-2,3.68,3.19,3.19,0,0,0,1.12,1.66,3.1,3.1,0,0,0,1.69.67,7.19,7.19,0,0,0,1.64-.16,4.45,4.45,0,0,1,2.52,0h0A5.3,5.3,0,0,1,226.19,205.35Z" style="fill:#263238"></path><path d="M192.73,272s-.08-.18,0-.52a2.37,2.37,0,0,1,1-1.17,4.71,4.71,0,0,1,2.31-.58,9.89,9.89,0,0,0,3-.39,4.37,4.37,0,0,0,2.46-2.49A4.3,4.3,0,0,0,201,263c-.84-1.21-2.39-1.75-3.84-2.62a4.86,4.86,0,0,1-1.85-1.86,7,7,0,0,1-.68-2.6c-.17-1.76-.19-3.5-1.18-4.79a4.57,4.57,0,0,0-3.84-2,3.93,3.93,0,0,0-3.22,2.19,3.13,3.13,0,0,0-.28,1.79c.09.59.31,1.16.45,1.73a3.22,3.22,0,0,1,.06,1.71,2.57,2.57,0,0,1-.87,1.27,3.87,3.87,0,0,1-2.25.79,9.09,9.09,0,0,1-1.5-.05,2.3,2.3,0,0,1-.51-.09c0-.06.72,0,2-.06a3.72,3.72,0,0,0,2.08-.82,2.24,2.24,0,0,0,.74-1.12,2.93,2.93,0,0,0-.1-1.54c-.14-.54-.37-1.11-.48-1.76a3.35,3.35,0,0,1,.28-2,4.37,4.37,0,0,1,3.58-2.49,5.08,5.08,0,0,1,4.29,2.21,5.85,5.85,0,0,1,1,2.43c.16.87.2,1.74.29,2.61a6.4,6.4,0,0,0,.62,2.41,4.36,4.36,0,0,0,1.66,1.67c1.36.84,3,1.4,4,2.77a4.61,4.61,0,0,1-2.16,7,9.8,9.8,0,0,1-3.14.34,4.63,4.63,0,0,0-2.21.46,2.36,2.36,0,0,0-1,1A2.29,2.29,0,0,0,192.73,272Z" style="fill:#263238"></path><path d="M185.58,272.56a1.52,1.52,0,0,1-.06-.79,13.31,13.31,0,0,0,.24-2,1.91,1.91,0,0,0-.57-1.16,3,3,0,0,0-1.37-.69c-.55-.15-1.16-.24-1.8-.42a4.7,4.7,0,0,1-1.83-1,4.91,4.91,0,0,1-1.68-3.55,4.72,4.72,0,0,1,2.81-4.33c.48-.19.76-.21.77-.18a6.07,6.07,0,0,0-2.2,1.71,4.46,4.46,0,0,0-.9,2.79,4.56,4.56,0,0,0,1.55,3.17c1,.91,2.24,1,3.41,1.35a3.37,3.37,0,0,1,1.55.85,2.28,2.28,0,0,1,.63,1.43,4,4,0,0,1-.18,1.24c-.1.34-.18.63-.23.87A6,6,0,0,1,185.58,272.56Z" style="fill:#263238"></path><path d="M163.37,229.54a2,2,0,0,1,.75-.56,1.82,1.82,0,0,1,1.15-.13,2.34,2.34,0,0,1,1.31.87h0v0a6.78,6.78,0,0,0,1.84,2.95,2.46,2.46,0,0,0,1.9.53,4.14,4.14,0,0,0,1.9-1.25,4,4,0,0,1,2.4-1.27,4.31,4.31,0,0,1,2.83.72,4.1,4.1,0,0,1,1.76,2.5,5.2,5.2,0,0,1-.28,3.18,5.65,5.65,0,0,1-1.42,2,12.31,12.31,0,0,1-1.95,1.34,7.33,7.33,0,0,0-3.18,2.68,9.8,9.8,0,0,0-.6,3.78,5.4,5.4,0,0,1-1.14,3.31,4.67,4.67,0,0,1-2.45,1.54,2.56,2.56,0,0,1-2.16-.24,5,5,0,0,1-.92-1,1.84,1.84,0,0,1-.25-.41s.13.11.34.34a5.14,5.14,0,0,0,.94.93,2.33,2.33,0,0,0,2,.13,4.42,4.42,0,0,0,2.25-1.49,5.11,5.11,0,0,0,1-3.11,10,10,0,0,1,.6-4c1.4-2.78,5.38-3,6.5-6a4.68,4.68,0,0,0,.26-2.85,3.65,3.65,0,0,0-1.54-2.22,3.89,3.89,0,0,0-2.49-.65,3.6,3.6,0,0,0-2.16,1.13,4.45,4.45,0,0,1-2.13,1.32,2.78,2.78,0,0,1-2.2-.65,6.76,6.76,0,0,1-1.87-3.15l0,0a2.21,2.21,0,0,0-1.14-.81,1.62,1.62,0,0,0-1,.06A6.94,6.94,0,0,0,163.37,229.54Z" style="fill:#263238"></path><path d="M252.61,143a3.63,3.63,0,0,1,2.49,2.13,9.64,9.64,0,0,1,6.32-2.07,5.2,5.2,0,0,1-2.12,3.24c-1,.82-2.23,1.42-3.28,2.23a5.38,5.38,0,0,0-2.18,3.2" style="fill:#b78876"></path><path d="M575.47,446.1l-.82-8.14,15.22-1.64,1.34,11.88-.94.17c-4.17.68-21.28,3.2-24.18,2.65C562.85,450.41,575.47,446.1,575.47,446.1Z" style="fill:#FF725E"></path><path d="M585.68,448.68a5.32,5.32,0,0,1,1.59-3.45,5.14,5.14,0,0,1,3.44-1.5l.46,4.26Z" style="fill:#FF725E"></path><path d="M569.33,448.43s-4.39,1.8-3.75,2.49,18-1.21,25.63-2.72l-.06-.33-20.26,2.38S570.22,448.37,569.33,448.43Z" style="fill:#FF725E"></path><path d="M591.39,447.83l-.26.06-.75.13-2.75.42c-2.33.33-5.55.76-9.12,1.15s-6.81.68-9.16.85l-2.78.19-.75,0h-.27l.26,0,.76-.08,2.77-.24c2.35-.21,5.58-.51,9.15-.9s6.79-.8,9.12-1.1l2.76-.37.75-.09Z" style="fill:#263238"></path><path d="M570.92,450.48a6.74,6.74,0,0,0-.66-1.26,6.55,6.55,0,0,0-1.06-1,2.45,2.45,0,0,1,1.72,2.22Z" style="fill:#263238"></path><path d="M575.16,447.71s-.28-.2-.54-.53-.44-.61-.4-.65.29.21.55.54S575.2,447.68,575.16,447.71Z" style="fill:#263238"></path><path d="M576.33,446.93s-.29-.09-.58-.3-.5-.41-.47-.45.29.09.58.3S576.36,446.89,576.33,446.93Z" style="fill:#263238"></path><path d="M577,445.41a1.84,1.84,0,0,1-.78.18,1.78,1.78,0,0,1-.81,0,1.76,1.76,0,0,1,.78-.19A1.87,1.87,0,0,1,577,445.41Z" style="fill:#263238"></path><path d="M577.11,444.36a1.56,1.56,0,0,1-.86.36,1.73,1.73,0,0,1-.93,0,4.16,4.16,0,0,1,.89-.16A5.25,5.25,0,0,1,577.11,444.36Z" style="fill:#263238"></path><path d="M574.5,446.44a2.7,2.7,0,0,1-1,.1,5.37,5.37,0,0,1-1.06-.11,3.36,3.36,0,0,1-.63-.18.57.57,0,0,1-.27-.28.37.37,0,0,1,.11-.41,1.81,1.81,0,0,1,2.66.9c.06.17.07.26.06.26a3.16,3.16,0,0,0-.54-.78,1.71,1.71,0,0,0-.9-.45,1.51,1.51,0,0,0-1.15.2c-.15.13-.07.31.12.39a2.9,2.9,0,0,0,.57.18,6.5,6.5,0,0,0,1,.15C574.13,446.45,574.5,446.41,574.5,446.44Z" style="fill:#263238"></path><path d="M574.26,446.52a.91.91,0,0,1-.19-.67,1.56,1.56,0,0,1,.19-.74,1,1,0,0,1,.76-.59.39.39,0,0,1,.35.42,1,1,0,0,1-.12.45,3,3,0,0,1-.4.65c-.27.33-.5.47-.51.45s.17-.19.41-.53a3.07,3.07,0,0,0,.34-.63c.12-.23.17-.61-.08-.62s-.47.27-.6.48a1.72,1.72,0,0,0-.21.67A3.35,3.35,0,0,0,574.26,446.52Z" style="fill:#263238"></path><path d="M590.62,443.7a10.37,10.37,0,0,0-1.12.16,4.9,4.9,0,0,0-2.34,1.28,5,5,0,0,0-1.3,2.33c-.16.68-.14,1.12-.17,1.12a.83.83,0,0,1,0-.3,4.07,4.07,0,0,1,.07-.84,4.68,4.68,0,0,1,3.75-3.72,4.92,4.92,0,0,1,.84-.07A1,1,0,0,1,590.62,443.7Z" style="fill:#263238"></path><path d="M588.35,437.53a24.06,24.06,0,0,1,.48,3.12,27.25,27.25,0,0,1,.29,3.13,23.34,23.34,0,0,1-.48-3.11A27.32,27.32,0,0,1,588.35,437.53Z" style="fill:#263238"></path><path d="M583.6,447.41a9.44,9.44,0,0,1-2.2.46,8.42,8.42,0,0,1-2.25.06c0-.05,1-.1,2.23-.25S583.59,447.35,583.6,447.41Z" style="fill:#263238"></path><path d="M586.58,447.08s-.06.22-.13.46-.11.44-.17.45-.1-.24,0-.51S586.55,447,586.58,447.08Z" style="fill:#263238"></path><path d="M587.55,445.55s0,.21-.18.38-.28.3-.32.27,0-.21.18-.38S587.51,445.52,587.55,445.55Z" style="fill:#263238"></path><path d="M589.09,444.74c0,.05-.2.07-.42.18s-.36.24-.41.21.07-.26.33-.38S589.1,444.69,589.09,444.74Z" style="fill:#263238"></path><path d="M590.21,444.31c0,.05-.06.14-.18.2s-.24.08-.26,0,.05-.13.18-.19S590.18,444.27,590.21,444.31Z" style="fill:#263238"></path><path d="M531,446.28l.24-8.17,15.31.36-.23,12-.95,0c-4.23.13-21.52.39-24.32-.53C517.87,448.91,531,446.28,531,446.28Z" style="fill:#FF725E"></path><path d="M540.72,450.18a5.31,5.31,0,0,1,2-3.22,5.22,5.22,0,0,1,3.61-1l-.1,4.28Z" style="fill:#FF725E"></path><path d="M524.55,447.79s-4.59,1.21-4,2,18,1.17,25.76.67v-.35l-20.4-.29S525.44,447.85,524.55,447.79Z" style="fill:#FF725E"></path><path d="M546.5,450.08l-.27,0-.75,0-2.79.06c-2.35,0-5.6,0-9.19-.05s-6.84-.22-9.19-.36l-2.78-.18-.75-.06-.27,0h.27l.75,0,2.79.12c2.35.1,5.59.22,9.18.3s6.84.1,9.19.11h3.81Z" style="fill:#263238"></path><path d="M525.86,450a6.93,6.93,0,0,0-.49-1.34,6,6,0,0,0-.93-1.09,2.06,2.06,0,0,1,1.09,1A2.1,2.1,0,0,1,525.86,450Z" style="fill:#263238"></path><path d="M530.43,447.84s-.26-.24-.47-.6a1.55,1.55,0,0,1-.31-.69s.25.24.47.6A1.81,1.81,0,0,1,530.43,447.84Z" style="fill:#263238"></path><path d="M531.68,447.22s-.27-.13-.53-.38-.44-.47-.4-.5.27.12.53.37S531.72,447.18,531.68,447.22Z" style="fill:#263238"></path><path d="M532.5,445.79a3.6,3.6,0,1,1-.8-.1A1.77,1.77,0,0,1,532.5,445.79Z" style="fill:#263238"></path><path d="M532.79,444.78a2.31,2.31,0,0,1-1.81.09,5.6,5.6,0,0,1,.91,0A3.6,3.6,0,0,1,532.79,444.78Z" style="fill:#263238"></path><path d="M529.94,446.5a3.12,3.12,0,0,1-1,0,6.66,6.66,0,0,1-1.05-.26,2.73,2.73,0,0,1-.59-.26.55.55,0,0,1-.24-.31.41.41,0,0,1,.16-.39,1.8,1.8,0,0,1,2.22.58,1.73,1.73,0,0,1,.31.66.7.7,0,0,1,0,.27,3,3,0,0,0-.43-.85,1.84,1.84,0,0,0-.83-.57,1.51,1.51,0,0,0-1.18.06c-.15.11-.1.29.07.4a2.73,2.73,0,0,0,.55.25,6.69,6.69,0,0,0,1,.29C529.57,446.46,529.94,446.46,529.94,446.5Z" style="fill:#263238"></path><path d="M529.68,446.54a1,1,0,0,1-.09-.69,1.52,1.52,0,0,1,.28-.71,1,1,0,0,1,.83-.48.38.38,0,0,1,.29.46,1,1,0,0,1-.17.43,2.72,2.72,0,0,1-.48.59,1.44,1.44,0,0,1-.57.38s.2-.17.48-.47a5.17,5.17,0,0,0,.42-.58c.14-.21.24-.58,0-.63s-.51.21-.66.4a1.58,1.58,0,0,0-.29.64A4.4,4.4,0,0,0,529.68,446.54Z" style="fill:#263238"></path><path d="M546.28,445.88s-.44-.05-1.13,0a4.92,4.92,0,0,0-2.49,1,5,5,0,0,0-1.6,2.14c-.24.65-.28,1.1-.31,1.09a.74.74,0,0,1,0-.31,4,4,0,0,1,.18-.82,4.63,4.63,0,0,1,4.2-3.19,3.43,3.43,0,0,1,.84,0A.94.94,0,0,1,546.28,445.88Z" style="fill:#263238"></path><path d="M544.84,439.48a26.5,26.5,0,0,1,.06,3.14,24.62,24.62,0,0,1-.13,3.15,29.47,29.47,0,0,1-.06-3.15A26.77,26.77,0,0,1,544.84,439.48Z" style="fill:#263238"></path><path d="M538.83,448.64a8.52,8.52,0,0,1-2.24.17,8.3,8.3,0,0,1-2.23-.23c0-.05,1,0,2.23.05S538.83,448.59,538.83,448.64Z" style="fill:#263238"></path><path d="M541.83,448.7s-.08.21-.19.44-.17.43-.22.43-.08-.25.05-.51S541.8,448.67,541.83,448.7Z" style="fill:#263238"></path><path d="M543,447.32s-.07.2-.23.35-.33.26-.36.22.06-.19.23-.35S543,447.29,543,447.32Z" style="fill:#263238"></path><path d="M544.63,446.72s-.22,0-.44.12-.4.19-.43.15.09-.24.37-.33S544.64,446.67,544.63,446.72Z" style="fill:#263238"></path><path d="M545.79,446.44c0,.05-.08.12-.2.17s-.25.05-.27,0,.08-.13.2-.17S545.77,446.39,545.79,446.44Z" style="fill:#263238"></path><path d="M587.12,267.9s10.88,56.91,8.38,57.63-59,1.31-59,1.31l-6.13-54.25,26.95-8.9Z" style="fill:#FF725E"></path><path d="M587.12,267.9s10.88,56.91,8.38,57.63-59,1.31-59,1.31l-6.13-54.25,26.95-8.9Z" style="opacity:0.4"></path><path d="M584.71,253.33l1.06,103.27,8.67,84.94h-26.2L563,359s-2.08-67.82-4.19-67.86c-3.57-.07-6.28,152.32-7.65,152.61-2.32.51-26.67,0-26.67,0s7.85-178,7.79-178S584.71,253.33,584.71,253.33Z" style="fill:#263238"></path><path d="M559.72,290.5s-.25-.21-.63-.65a10.24,10.24,0,0,1-1.26-2.1,14.89,14.89,0,0,1-1.05-3.49,28.68,28.68,0,0,1-.4-4.42c0-3.15.1-6,.17-8a19.52,19.52,0,0,1,.24-3.31,22.27,22.27,0,0,1,.13,3.32c0,2.19,0,4.95,0,8a22.14,22.14,0,0,0,1.27,7.77A21.86,21.86,0,0,0,559.72,290.5Z" style="fill:#455a64"></path><path d="M574.13,275.45a31.06,31.06,0,0,1,.1,3.45,17.71,17.71,0,0,0,1.72,8,9,9,0,0,0,2.92,3.3,7.28,7.28,0,0,0,3.39,1.18,7.54,7.54,0,0,0,3.31-.55,2.28,2.28,0,0,1-.8.48,5.77,5.77,0,0,1-2.53.44,7.46,7.46,0,0,1-3.63-1.14,9.18,9.18,0,0,1-3.12-3.47,16.79,16.79,0,0,1-1.63-8.19c0-1.07.08-1.93.13-2.52A3.84,3.84,0,0,1,574.13,275.45Z" style="fill:#455a64"></path><path d="M530.35,291.86s.25.19.74.44a4.33,4.33,0,0,0,2.23.42,5.66,5.66,0,0,0,3.09-1.27,13.49,13.49,0,0,0,2.81-3.14,18,18,0,0,0,2.77-7.15c.3-2,.21-3.21.3-3.22a2.45,2.45,0,0,1,.13.87,14.64,14.64,0,0,1-.06,2.4,16.68,16.68,0,0,1-2.71,7.39,13.18,13.18,0,0,1-2.95,3.23,5.84,5.84,0,0,1-3.37,1.26,4.23,4.23,0,0,1-2.34-.62C530.51,292.15,530.33,291.88,530.35,291.86Z" style="fill:#455a64"></path><path d="M580.87,353.53a7.51,7.51,0,0,1-2,.9,44.73,44.73,0,0,1-5.08,1.54,48.87,48.87,0,0,1-5.22,1,8.19,8.19,0,0,1-2.2.12c0-.15,3.29-.61,7.3-1.59S580.82,353.39,580.87,353.53Z" style="fill:#455a64"></path><path d="M578.91,352.38a22.68,22.68,0,0,1-4.88.5,23.17,23.17,0,0,1-4.89,0,46.95,46.95,0,0,1,9.77-.47Z" style="fill:#455a64"></path><path d="M546.82,364a40.39,40.39,0,0,1-6.22,1.66,39.47,39.47,0,0,1-6.33,1.15,40,40,0,0,1,6.22-1.66A40.65,40.65,0,0,1,546.82,364Z" style="fill:#455a64"></path><path d="M545.87,361.22a31.54,31.54,0,0,1-5.82,0,34.24,34.24,0,0,1-5.81-.48,31.21,31.21,0,0,1,5.83,0A33.49,33.49,0,0,1,545.87,361.22Z" style="fill:#455a64"></path><path d="M570.12,187.12h8.29a18.51,18.51,0,0,1,13.63,7.8,19.76,19.76,0,0,1,2.1,18.45l-.86,2.27-8.11,19.08c-.62,2.52,0,7.71,0,27.61l-52.94,3.44,2.3-33.29.87-9.62.42-12a88.43,88.43,0,0,1-17.53-16.36L534,178.79s11.66,10.25,14.76,10S570.12,187.12,570.12,187.12Z" style="fill:#FF725E"></path><path d="M569.25,188.51,553,189.71c-.22-1.88-.53-9.2-.53-9.2s-6.81-.63-7.3-7.36-.29-22.28-.29-22.28h0a23.47,23.47,0,0,1,23.71,1.51l1,.71Z" style="fill:#ffbe9d"></path><path d="M547.1,162.36a1,1,0,1,0-1.4-1.37,1,1,0,0,0,1.4,1.37Z" style="fill:#263238"></path><path d="M545.38,160.92c.11.11.74-.44,1.67-.5s1.63.37,1.72.25-.07-.26-.38-.47a2.22,2.22,0,0,0-1.38-.34,2.3,2.3,0,0,0-1.33.54C545.41,160.65,545.32,160.87,545.38,160.92Z" style="fill:#263238"></path><path d="M556.12,161.07a1,1,0,1,0,1.36.24A1,1,0,0,0,556.12,161.07Z" style="fill:#263238"></path><path d="M555.5,161.11c.12.11.75-.44,1.67-.5s1.63.38,1.73.25-.07-.26-.38-.46a2.24,2.24,0,0,0-1.39-.35,2.27,2.27,0,0,0-1.32.55C555.54,160.85,555.45,161.07,555.5,161.11Z" style="fill:#263238"></path><path d="M552.26,169a4.7,4.7,0,0,1-1.53.14,1.59,1.59,0,0,1-.42,0,.62.62,0,0,1-.44-.36,1.55,1.55,0,0,1,.07-1l.58-1.94a27.32,27.32,0,0,1,1.78-4.9,26.49,26.49,0,0,1-1.28,5c-.22.67-.42,1.3-.62,1.93a1.31,1.31,0,0,0-.13.71c0,.13.22.17.47.18A4.82,4.82,0,0,1,552.26,169Z" style="fill:#263238"></path><path d="M555.33,169.84c.93-.64-2.57,1.57-4.46,1.6a2.56,2.56,0,0,0,3.08.83C555.92,171.41,555.33,169.84,555.33,169.84Z" style="fill:#fff"></path><path d="M552.41,180.41a15.73,15.73,0,0,0,8.63-3s-1.78,5-8.54,4.79Z" style="fill:#eb996e"></path><path d="M568.08,160.54c.15-.06,5-.69,4.54,5s-6.09,3.37-6.09,3.21S568.08,160.54,568.08,160.54Z" style="fill:#ffbe9d"></path><path d="M568.45,166.92s.09.07.25.16a1,1,0,0,0,.75.08,2.47,2.47,0,0,0,1.32-2.12,3.19,3.19,0,0,0-.17-1.46,1.15,1.15,0,0,0-.69-.82.51.51,0,0,0-.61.22c-.09.16-.06.28-.09.28s-.12-.1-.05-.34a.64.64,0,0,1,.25-.34.78.78,0,0,1,.57-.1,1.43,1.43,0,0,1,1,1,3.48,3.48,0,0,1,.22,1.63,2.61,2.61,0,0,1-1.66,2.36,1.09,1.09,0,0,1-.9-.23C568.45,167.06,568.43,166.93,568.45,166.92Z" style="fill:#eb996e"></path><path d="M545.37,151.28a3.89,3.89,0,0,1-2.78-3.86,4.76,4.76,0,0,1,2.81-4,6.09,6.09,0,0,1,5,.08,5.39,5.39,0,0,1,10.63.29c.17-1.3,1.64-2,3-2.1a4.29,4.29,0,0,1,3.55,1.3,2.66,2.66,0,0,1,0,3.55,6,6,0,0,1,4.18,1,4.41,4.41,0,0,1,1.86,3.78,3.51,3.51,0,0,1-2.63,3.14c-.5.1-1.09.13-1.36.56a1.49,1.49,0,0,0-.14.81l.15,4.85a1.88,1.88,0,0,0-2.35,1.05,5.38,5.38,0,0,0-.27,2.82c-.41.62-1.46.44-1.91-.16a3.57,3.57,0,0,1-.49-2.15q-.06-3.9-.1-7.79a2.59,2.59,0,0,1-3.84-2.13,5.14,5.14,0,0,1-7.92-1,12.06,12.06,0,0,1-2.55,1.7,4.17,4.17,0,0,1-3,.26,2.52,2.52,0,0,1-1.75-2.29l.34-.29" style="fill:#FF725E"></path><path d="M542.18,152.17s.07-.22.42-.25a.8.8,0,0,1,.59.21.85.85,0,0,1,.22.81,1.12,1.12,0,0,1-.63.79,1.54,1.54,0,0,1-1.14,0,2,2,0,0,1-1.32-2,2.31,2.31,0,0,1,1.5-1.9,3,3,0,0,1,2,0c1.06.37,1.49.94,1.45,1s-.57-.37-1.55-.62a2.78,2.78,0,0,0-1.69.12,1.86,1.86,0,0,0-1.16,1.5,1.5,1.5,0,0,0,1,1.53.91.91,0,0,0,1.26-.47.55.55,0,0,0-.46-.73C542.34,152.08,542.21,152.21,542.18,152.17Z" style="fill:#FF725E"></path><path d="M569.3,150.65c0-.07.42-.43,1-1.1a3.84,3.84,0,0,0,.81-1.31,2,2,0,0,0-.11-1.72,1.38,1.38,0,0,0-1.43-.72,4,4,0,0,0-1.45.54c-.78.45-1.17.89-1.23.84s.24-.58,1-1.15a4,4,0,0,1,1.58-.71,1.83,1.83,0,0,1,1.09.13,2.07,2.07,0,0,1,.86.8,2.44,2.44,0,0,1,.11,2.16,3.75,3.75,0,0,1-1,1.4A3.26,3.26,0,0,1,569.3,150.65Z" style="fill:#FF725E"></path><path d="M556.41,143.7a4,4,0,0,1,.65-1.47,5.41,5.41,0,0,1,1.14-1.36,3.42,3.42,0,0,1,2.08-.79,2.35,2.35,0,0,1,2,1,2.88,2.88,0,0,1,.51,1.74,2.7,2.7,0,0,1-.4,1.57c-.09,0,.08-.62,0-1.55a2.85,2.85,0,0,0-.52-1.48,2,2,0,0,0-1.64-.73,3.92,3.92,0,0,0-2.93,1.84C556.8,143.22,556.48,143.74,556.41,143.7Z" style="fill:#FF725E"></path><g style="opacity:0.4"><path d="M545.37,151.28a3.89,3.89,0,0,1-2.78-3.86,4.76,4.76,0,0,1,2.81-4,6.09,6.09,0,0,1,5,.08,5.39,5.39,0,0,1,10.63.29c.17-1.3,1.64-2,3-2.1a4.29,4.29,0,0,1,3.55,1.3,2.66,2.66,0,0,1,0,3.55,6,6,0,0,1,4.18,1,4.41,4.41,0,0,1,1.86,3.78,3.51,3.51,0,0,1-2.63,3.14c-.5.1-1.09.13-1.36.56a1.49,1.49,0,0,0-.14.81l.15,4.85a1.88,1.88,0,0,0-2.35,1.05,5.38,5.38,0,0,0-.27,2.82c-.41.62-1.46.44-1.91-.16a3.57,3.57,0,0,1-.49-2.15q-.06-3.9-.1-7.79a2.59,2.59,0,0,1-3.84-2.13,5.14,5.14,0,0,1-7.92-1,12.06,12.06,0,0,1-2.55,1.7,4.17,4.17,0,0,1-3,.26,2.52,2.52,0,0,1-1.75-2.29l.34-.29"></path><path d="M542.18,152.17s.07-.22.42-.25a.8.8,0,0,1,.59.21.85.85,0,0,1,.22.81,1.12,1.12,0,0,1-.63.79,1.54,1.54,0,0,1-1.14,0,2,2,0,0,1-1.32-2,2.31,2.31,0,0,1,1.5-1.9,3,3,0,0,1,2,0c1.06.37,1.49.94,1.45,1s-.57-.37-1.55-.62a2.78,2.78,0,0,0-1.69.12,1.86,1.86,0,0,0-1.16,1.5,1.5,1.5,0,0,0,1,1.53.91.91,0,0,0,1.26-.47.55.55,0,0,0-.46-.73C542.34,152.08,542.21,152.21,542.18,152.17Z"></path><path d="M569.3,150.65c0-.07.42-.43,1-1.1a3.84,3.84,0,0,0,.81-1.31,2,2,0,0,0-.11-1.72,1.38,1.38,0,0,0-1.43-.72,4,4,0,0,0-1.45.54c-.78.45-1.17.89-1.23.84s.24-.58,1-1.15a4,4,0,0,1,1.58-.71,1.83,1.83,0,0,1,1.09.13,2.07,2.07,0,0,1,.86.8,2.44,2.44,0,0,1,.11,2.16,3.75,3.75,0,0,1-1,1.4A3.26,3.26,0,0,1,569.3,150.65Z"></path><path d="M556.41,143.7a4,4,0,0,1,.65-1.47,5.41,5.41,0,0,1,1.14-1.36,3.42,3.42,0,0,1,2.08-.79,2.35,2.35,0,0,1,2,1,2.88,2.88,0,0,1,.51,1.74,2.7,2.7,0,0,1-.4,1.57c-.09,0,.08-.62,0-1.55a2.85,2.85,0,0,0-.52-1.48,2,2,0,0,0-1.64-.73,3.92,3.92,0,0,0-2.93,1.84C556.8,143.22,556.48,143.74,556.41,143.7Z"></path></g><path d="M574.49,210.47S564.23,229,560.38,232.2s-32.59-3.86-32.59-3.86h0l-.47-.79a29.84,29.84,0,0,1-3-4.92,8.86,8.86,0,0,1-.87-2.74,13.17,13.17,0,0,1-.16-3.59c.21-1.08-1-1.87-1.7-1.2s-1.36,3.64-.55,7.11-3.53,0-5.13-1.19-6.74-4.77-7.49-4.56c-1.11.3-1,1.57.64,2.75s6.28,5.08,5.61,5.91-8.73-5.51-8.73-5.51-1.52-1.64-2.32-.71c-1.43,1.69,7.64,7.77,8.51,8.33.61.39-.08,1.32-.71.87s-7.92-6.51-9.4-4.81c-1.14,1.31,7.42,5.08,8.25,7.18s-6.21-3.53-7.24-2.24c-.39.49-.61.9,3.89,3.54,3.21,1.89,10.8,5,15.11,6.75,3.91,1.93,18.26,8.83,30.06,11.81,9.11,2.3,18.67.73,24-7l16.31-25.92Z" style="fill:#ffbe9d"></path><polygon points="530.35 272.59 558.17 265.78 558.17 262.73 531.92 260.6 530.35 272.59" style="fill:#FF725E"></polygon><polygon points="530.35 272.59 558.17 265.78 558.17 262.73 531.92 260.6 530.35 272.59" style="opacity:0.4"></polygon><path d="M585.84,258.65c-1.89.61-27.66,4.08-27.66,4.08v3l29.58,5.53Z" style="fill:#FF725E"></path><path d="M585.84,258.65c-1.89.61-27.66,4.08-27.66,4.08v3l29.58,5.53Z" style="opacity:0.4"></path><path d="M553,267.31c-.06,0-.3-.32-.39-1a3.57,3.57,0,0,1,.62-2.47,3.49,3.49,0,0,1,2.12-1.4c.65-.13,1.06,0,1,0s-.39.11-.95.32a3.63,3.63,0,0,0-2.47,3.49C553,266.9,553.08,267.28,553,267.31Z" style="fill:#263238"></path><path d="M553.89,263.63c0-.06.27-.24.79-.37a3.19,3.19,0,0,1,2.13.18,2.22,2.22,0,0,1,1.32,1.72c.06.58-.17.9-.22.87s0-.34-.15-.8a2.13,2.13,0,0,0-1.17-1.32,3.77,3.77,0,0,0-1.85-.29C554.24,263.65,553.91,263.7,553.89,263.63Z" style="fill:#263238"></path><path d="M558.46,262.88c.12-.07.55.67.39,1.67s-.81,1.57-.9,1.47.26-.71.38-1.55S558.32,262.93,558.46,262.88Z" style="fill:#263238"></path><path d="M534.43,267.35a83.14,83.14,0,0,1,9.14-1.47,84.35,84.35,0,0,1,9.22-1,84.41,84.41,0,0,1-9.15,1.48A79.68,79.68,0,0,1,534.43,267.35Z" style="fill:#263238"></path><path d="M577.74,262.18a174.12,174.12,0,0,1-19,2.46,88.59,88.59,0,0,1,9.44-1.49A85.56,85.56,0,0,1,577.74,262.18Z" style="fill:#263238"></path><path d="M574.75,264.76a11.31,11.31,0,0,1-2.33.06l-5.59,0-5.59,0a10.27,10.27,0,0,1-2.32-.08,9.66,9.66,0,0,1,2.31-.29c1.43-.11,3.41-.19,5.61-.19s4.17.1,5.6.21A9.3,9.3,0,0,1,574.75,264.76Z" style="fill:#263238"></path><path d="M554,264.28s-7.72,19.85-8.43,39.52v6l11,.47s-1.63-30.75,1.62-44.47Z" style="fill:#FF725E"></path><path d="M554,264.28s-7.72,19.85-8.43,39.52v6l11,.47s-1.63-30.75,1.62-44.47Z" style="opacity:0.4"></path><path d="M556.29,307.64a40.37,40.37,0,0,1-5.41,0,37.82,37.82,0,0,1-5.41-.21,22.68,22.68,0,0,1,5.42-.31A22.24,22.24,0,0,1,556.29,307.64Z" style="fill:#263238"></path><path d="M548.56,309.89c-.14,0-.38-.52-.45-1.25s.08-1.32.22-1.31.24.57.3,1.26S548.7,309.85,548.56,309.89Z" style="fill:#263238"></path><path d="M553.16,310.12c-.13,0-.43-.5-.51-1.24s.12-1.34.25-1.32.2.58.27,1.26S553.3,310.07,553.16,310.12Z" style="fill:#263238"></path><path d="M551.38,283.49a15.73,15.73,0,0,1,.27-3c.26-1.86.72-4.42,1.4-7.2a73.37,73.37,0,0,1,2.11-7,16,16,0,0,1,1.17-2.8,21.73,21.73,0,0,1-.82,2.92c-.55,1.79-1.27,4.27-2,7s-1.2,5.3-1.55,7.14A20.27,20.27,0,0,1,551.38,283.49Z" style="fill:#263238"></path></g></svg>