<svg xmlns="http://www.w3.org/2000/svg" xmlns:xlink="http://www.w3.org/1999/xlink" width="150" zoomAndPan="magnify" viewBox="0 0 112.5 30.000001" height="40" preserveAspectRatio="xMidYMid meet" version="1.0"><defs><clipPath id="id1"><path d="M 99.554688 10.664062 L 109.628906 10.664062 L 109.628906 21.152344 L 99.554688 21.152344 Z M 99.554688 10.664062 " clip-rule="nonzero"/></clipPath><clipPath id="id2"><path d="M 3.429688 8.410156 L 13.019531 8.410156 L 13.019531 23.683594 L 3.429688 23.683594 Z M 3.429688 8.410156 " clip-rule="nonzero"/></clipPath><clipPath id="id3"><path d="M 8.679688 5.953125 L 18.265625 5.953125 L 18.265625 21.226562 L 8.679688 21.226562 Z M 8.679688 5.953125 " clip-rule="nonzero"/></clipPath></defs><path fill="rgb(16.468811%, 25.878906%, 55.688477%)" d="M 22.460938 9.070312 C 22.457031 9.035156 22.460938 9 22.464844 8.964844 C 22.464844 8.925781 22.476562 8.894531 22.492188 8.859375 C 22.507812 8.828125 22.523438 8.796875 22.542969 8.769531 C 22.566406 8.738281 22.585938 8.710938 22.617188 8.691406 C 22.753906 8.585938 22.90625 8.507812 23.070312 8.449219 L 24.835938 7.808594 C 24.863281 7.804688 24.882812 7.800781 24.910156 7.800781 L 24.972656 7.800781 C 25.167969 7.800781 25.296875 7.859375 25.359375 7.972656 C 25.433594 8.117188 25.464844 8.269531 25.464844 8.433594 L 25.457031 10.65625 L 26.519531 10.65625 C 26.597656 10.652344 26.664062 10.664062 26.738281 10.6875 C 26.808594 10.714844 26.871094 10.753906 26.925781 10.808594 C 26.953125 10.835938 26.976562 10.871094 26.996094 10.90625 C 27.019531 10.945312 27.035156 10.980469 27.046875 11.019531 C 27.0625 11.0625 27.070312 11.101562 27.078125 11.144531 C 27.082031 11.183594 27.085938 11.226562 27.082031 11.269531 L 27.082031 12.832031 C 27.082031 13.054688 27.03125 13.222656 26.925781 13.328125 C 26.871094 13.382812 26.808594 13.421875 26.738281 13.453125 C 26.667969 13.476562 26.597656 13.492188 26.519531 13.488281 L 25.453125 13.488281 L 25.460938 20.316406 C 25.464844 20.359375 25.460938 20.398438 25.457031 20.445312 C 25.449219 20.488281 25.441406 20.527344 25.421875 20.570312 C 25.410156 20.609375 25.390625 20.648438 25.367188 20.683594 C 25.347656 20.722656 25.320312 20.753906 25.289062 20.785156 C 25.222656 20.839844 25.144531 20.878906 25.066406 20.910156 C 24.980469 20.933594 24.898438 20.945312 24.8125 20.941406 L 23.058594 20.941406 C 22.660156 20.941406 22.460938 20.734375 22.460938 20.320312 L 22.453125 13.496094 L 21.648438 13.496094 C 21.253906 13.496094 21.050781 13.277344 21.050781 12.839844 L 21.050781 11.277344 C 21.050781 10.867188 21.257812 10.664062 21.648438 10.664062 L 22.453125 10.664062 Z M 22.460938 9.070312 " fill-opacity="1" fill-rule="nonzero"/><path fill="rgb(16.468811%, 25.878906%, 55.688477%)" d="M 37.722656 20.355469 C 37.722656 20.445312 37.707031 20.527344 37.675781 20.613281 C 37.636719 20.6875 37.585938 20.75 37.523438 20.804688 C 37.460938 20.859375 37.394531 20.898438 37.316406 20.925781 C 37.25 20.9375 37.183594 20.945312 37.113281 20.945312 L 35.582031 20.945312 C 35.492188 20.949219 35.402344 20.933594 35.316406 20.902344 C 35.25 20.875 35.195312 20.832031 35.152344 20.78125 C 35.109375 20.722656 35.074219 20.65625 35.050781 20.585938 C 35.019531 20.507812 34.992188 20.421875 34.960938 20.332031 L 34.859375 19.976562 C 34.710938 20.125 34.550781 20.265625 34.382812 20.394531 C 34.195312 20.539062 34 20.660156 33.792969 20.765625 C 33.570312 20.875 33.339844 20.964844 33.097656 21.027344 C 32.847656 21.097656 32.59375 21.132812 32.335938 21.132812 C 32.109375 21.132812 31.886719 21.121094 31.664062 21.089844 C 31.441406 21.0625 31.222656 21.015625 31.003906 20.957031 C 30.785156 20.898438 30.574219 20.824219 30.367188 20.734375 C 30.15625 20.648438 29.957031 20.542969 29.765625 20.429688 C 29.390625 20.203125 29.050781 19.933594 28.742188 19.617188 C 28.433594 19.300781 28.167969 18.945312 27.949219 18.550781 C 27.726562 18.15625 27.554688 17.738281 27.441406 17.300781 C 27.320312 16.839844 27.261719 16.375 27.265625 15.894531 C 27.265625 15.722656 27.269531 15.550781 27.285156 15.378906 C 27.300781 15.210938 27.324219 15.039062 27.355469 14.871094 C 27.386719 14.699219 27.425781 14.535156 27.476562 14.371094 C 27.523438 14.207031 27.578125 14.046875 27.644531 13.886719 C 27.707031 13.730469 27.777344 13.574219 27.855469 13.421875 C 27.929688 13.269531 28.019531 13.121094 28.109375 12.980469 C 28.199219 12.835938 28.300781 12.699219 28.410156 12.566406 C 28.515625 12.433594 28.628906 12.304688 28.742188 12.179688 C 28.859375 12.058594 28.984375 11.945312 29.113281 11.835938 C 29.238281 11.730469 29.375 11.625 29.511719 11.535156 C 29.652344 11.4375 29.792969 11.355469 29.9375 11.273438 C 30.085938 11.191406 30.234375 11.121094 30.390625 11.054688 C 30.542969 10.992188 30.699219 10.933594 30.863281 10.882812 C 31.023438 10.835938 31.183594 10.796875 31.347656 10.761719 C 31.511719 10.730469 31.675781 10.707031 31.839844 10.691406 C 32.003906 10.675781 32.171875 10.671875 32.335938 10.671875 C 32.636719 10.667969 32.9375 10.703125 33.230469 10.78125 C 33.496094 10.851562 33.753906 10.949219 33.992188 11.082031 C 34.222656 11.210938 34.429688 11.359375 34.621094 11.542969 C 34.804688 11.714844 34.964844 11.90625 35.109375 12.117188 L 35.335938 11.390625 C 35.386719 11.257812 35.429688 11.152344 35.460938 11.066406 C 35.488281 11 35.523438 10.9375 35.570312 10.882812 C 35.609375 10.84375 35.660156 10.816406 35.714844 10.804688 C 35.792969 10.789062 35.875 10.78125 35.953125 10.785156 L 37.113281 10.785156 C 37.183594 10.785156 37.246094 10.796875 37.316406 10.808594 C 37.398438 10.820312 37.460938 10.859375 37.519531 10.917969 C 37.585938 10.972656 37.636719 11.039062 37.675781 11.117188 C 37.707031 11.199219 37.722656 11.285156 37.722656 11.371094 Z M 30.0625 15.894531 C 30.058594 16.230469 30.113281 16.558594 30.222656 16.875 C 30.320312 17.171875 30.476562 17.433594 30.679688 17.667969 C 30.730469 17.730469 30.785156 17.785156 30.84375 17.835938 C 30.902344 17.886719 30.960938 17.9375 31.023438 17.984375 C 31.082031 18.03125 31.148438 18.074219 31.214844 18.109375 C 31.28125 18.144531 31.351562 18.183594 31.417969 18.210938 C 31.488281 18.242188 31.5625 18.273438 31.632812 18.292969 C 31.707031 18.316406 31.78125 18.339844 31.855469 18.351562 C 31.933594 18.367188 32.007812 18.378906 32.082031 18.386719 C 32.160156 18.394531 32.234375 18.398438 32.3125 18.394531 C 32.648438 18.398438 32.972656 18.332031 33.28125 18.199219 C 33.574219 18.074219 33.832031 17.894531 34.058594 17.667969 C 34.28125 17.441406 34.457031 17.179688 34.574219 16.875 C 34.636719 16.71875 34.683594 16.5625 34.714844 16.394531 C 34.746094 16.230469 34.761719 16.066406 34.761719 15.898438 C 34.761719 15.726562 34.746094 15.566406 34.714844 15.398438 C 34.679688 15.230469 34.636719 15.074219 34.574219 14.917969 C 34.457031 14.613281 34.28125 14.34375 34.058594 14.105469 C 33.835938 13.867188 33.574219 13.683594 33.28125 13.550781 C 33.128906 13.480469 32.972656 13.429688 32.808594 13.394531 C 32.644531 13.363281 32.480469 13.34375 32.3125 13.34375 C 32.152344 13.34375 31.996094 13.359375 31.84375 13.394531 C 31.683594 13.429688 31.535156 13.484375 31.394531 13.554688 C 31.121094 13.6875 30.882812 13.871094 30.6875 14.109375 C 30.484375 14.347656 30.332031 14.621094 30.230469 14.921875 C 30.117188 15.238281 30.066406 15.5625 30.0625 15.894531 " fill-opacity="1" fill-rule="nonzero"/><path fill="rgb(16.468811%, 25.878906%, 55.688477%)" d="M 38.933594 10.972656 C 38.996094 10.917969 39.070312 10.878906 39.152344 10.863281 C 39.21875 10.847656 39.292969 10.839844 39.367188 10.839844 L 40.539062 10.839844 C 40.625 10.835938 40.703125 10.855469 40.78125 10.890625 C 40.84375 10.925781 40.902344 10.972656 40.953125 11.035156 C 41 11.09375 41.035156 11.160156 41.0625 11.234375 C 41.09375 11.308594 41.117188 11.386719 41.148438 11.464844 L 41.3125 12.164062 C 41.402344 11.976562 41.515625 11.808594 41.648438 11.652344 C 41.808594 11.464844 41.992188 11.304688 42.203125 11.175781 C 42.449219 11.019531 42.714844 10.902344 42.996094 10.820312 C 43.351562 10.722656 43.714844 10.675781 44.082031 10.683594 C 44.386719 10.683594 44.679688 10.71875 44.972656 10.789062 C 45.230469 10.851562 45.472656 10.949219 45.703125 11.082031 C 45.925781 11.214844 46.128906 11.367188 46.304688 11.554688 C 46.496094 11.753906 46.667969 11.964844 46.820312 12.199219 C 46.945312 12.003906 47.089844 11.832031 47.261719 11.683594 C 47.472656 11.488281 47.707031 11.328125 47.957031 11.191406 C 48.246094 11.035156 48.542969 10.914062 48.859375 10.828125 C 49.207031 10.734375 49.5625 10.679688 49.917969 10.683594 C 50.183594 10.675781 50.449219 10.707031 50.714844 10.765625 C 50.976562 10.824219 51.226562 10.917969 51.464844 11.039062 C 51.679688 11.152344 51.882812 11.289062 52.070312 11.449219 C 52.253906 11.613281 52.417969 11.789062 52.566406 11.992188 C 52.71875 12.203125 52.84375 12.429688 52.957031 12.664062 C 53.070312 12.902344 53.15625 13.148438 53.222656 13.398438 C 53.371094 13.964844 53.441406 14.539062 53.441406 15.121094 L 53.441406 20.335938 C 53.445312 20.417969 53.4375 20.5 53.414062 20.578125 C 53.390625 20.65625 53.359375 20.726562 53.3125 20.792969 C 53.285156 20.820312 53.257812 20.847656 53.222656 20.867188 C 53.191406 20.890625 53.160156 20.90625 53.125 20.921875 C 53.09375 20.933594 53.058594 20.941406 53.015625 20.949219 C 52.980469 20.953125 52.945312 20.957031 52.902344 20.953125 L 51.101562 20.953125 C 50.878906 20.953125 50.726562 20.917969 50.644531 20.839844 C 50.558594 20.761719 50.519531 20.613281 50.519531 20.386719 L 50.519531 15.113281 C 50.523438 14.894531 50.492188 14.683594 50.417969 14.476562 C 50.351562 14.289062 50.253906 14.117188 50.125 13.964844 C 50 13.816406 49.847656 13.703125 49.671875 13.621094 C 49.480469 13.535156 49.285156 13.496094 49.078125 13.5 C 48.878906 13.5 48.695312 13.539062 48.515625 13.617188 C 48.339844 13.695312 48.183594 13.804688 48.046875 13.949219 C 47.910156 14.097656 47.800781 14.269531 47.726562 14.460938 C 47.644531 14.671875 47.605469 14.886719 47.605469 15.117188 L 47.605469 20.332031 C 47.613281 20.414062 47.605469 20.496094 47.582031 20.574219 C 47.558594 20.652344 47.523438 20.726562 47.476562 20.792969 C 47.449219 20.816406 47.421875 20.84375 47.386719 20.863281 C 47.355469 20.886719 47.324219 20.902344 47.289062 20.917969 C 47.253906 20.929688 47.222656 20.9375 47.179688 20.945312 C 47.144531 20.949219 47.109375 20.953125 47.066406 20.949219 L 45.269531 20.949219 C 45.046875 20.949219 44.894531 20.914062 44.8125 20.835938 C 44.726562 20.757812 44.6875 20.609375 44.6875 20.386719 L 44.6875 15.113281 C 44.6875 14.894531 44.65625 14.683594 44.585938 14.476562 C 44.523438 14.289062 44.433594 14.117188 44.304688 13.964844 C 44.179688 13.816406 44.035156 13.703125 43.859375 13.621094 C 43.675781 13.535156 43.476562 13.496094 43.273438 13.5 C 43.082031 13.5 42.902344 13.539062 42.726562 13.613281 C 42.546875 13.691406 42.386719 13.800781 42.246094 13.9375 C 42.097656 14.085938 41.980469 14.257812 41.886719 14.445312 C 41.789062 14.652344 41.734375 14.871094 41.722656 15.101562 L 41.722656 20.359375 C 41.722656 20.453125 41.707031 20.542969 41.671875 20.628906 C 41.644531 20.714844 41.59375 20.785156 41.519531 20.835938 C 41.460938 20.875 41.394531 20.902344 41.332031 20.925781 C 41.265625 20.9375 41.195312 20.949219 41.125 20.945312 L 39.363281 20.945312 C 39.140625 20.945312 38.980469 20.890625 38.878906 20.78125 C 38.828125 20.71875 38.789062 20.648438 38.765625 20.574219 C 38.738281 20.496094 38.726562 20.417969 38.730469 20.335938 L 38.730469 11.421875 C 38.730469 11.324219 38.753906 11.230469 38.796875 11.148438 C 38.839844 11.0625 38.902344 11 38.980469 10.945312 Z M 38.933594 10.972656 " fill-opacity="1" fill-rule="nonzero"/><path fill="rgb(16.468811%, 25.878906%, 55.688477%)" d="M 64.613281 20.355469 C 64.613281 20.445312 64.597656 20.527344 64.566406 20.613281 C 64.527344 20.6875 64.476562 20.75 64.414062 20.804688 C 64.351562 20.859375 64.285156 20.898438 64.207031 20.925781 C 64.140625 20.9375 64.074219 20.945312 64.003906 20.945312 L 62.46875 20.945312 C 62.378906 20.949219 62.289062 20.933594 62.203125 20.902344 C 62.136719 20.875 62.082031 20.832031 62.039062 20.78125 C 61.996094 20.722656 61.960938 20.65625 61.9375 20.585938 C 61.90625 20.507812 61.878906 20.421875 61.847656 20.332031 L 61.746094 19.976562 C 61.597656 20.125 61.4375 20.265625 61.269531 20.394531 C 61.082031 20.535156 60.886719 20.660156 60.679688 20.765625 C 60.457031 20.875 60.226562 20.964844 59.984375 21.027344 C 59.734375 21.097656 59.480469 21.132812 59.222656 21.132812 C 58.996094 21.132812 58.773438 21.121094 58.550781 21.089844 C 58.328125 21.0625 58.109375 21.015625 57.890625 20.957031 C 57.671875 20.898438 57.460938 20.824219 57.253906 20.734375 C 57.042969 20.648438 56.84375 20.542969 56.652344 20.429688 C 56.277344 20.203125 55.9375 19.933594 55.628906 19.617188 C 55.324219 19.300781 55.0625 18.949219 54.84375 18.558594 C 54.621094 18.164062 54.453125 17.746094 54.335938 17.304688 C 54.214844 16.84375 54.152344 16.378906 54.15625 15.898438 C 54.15625 15.726562 54.164062 15.554688 54.179688 15.382812 C 54.195312 15.214844 54.21875 15.042969 54.25 14.875 C 54.28125 14.703125 54.320312 14.539062 54.367188 14.375 C 54.417969 14.207031 54.472656 14.050781 54.535156 13.890625 C 54.597656 13.730469 54.671875 13.578125 54.75 13.425781 C 54.824219 13.273438 54.914062 13.125 55.003906 12.984375 C 55.09375 12.839844 55.195312 12.703125 55.300781 12.570312 C 55.40625 12.4375 55.519531 12.304688 55.636719 12.183594 C 55.753906 12.0625 55.878906 11.949219 56.003906 11.839844 C 56.132812 11.734375 56.269531 11.628906 56.40625 11.539062 C 56.546875 11.445312 56.6875 11.355469 56.832031 11.277344 C 56.980469 11.195312 57.128906 11.125 57.285156 11.058594 C 57.4375 10.992188 57.59375 10.9375 57.753906 10.886719 C 57.914062 10.839844 58.078125 10.800781 58.242188 10.765625 C 58.402344 10.734375 58.566406 10.710938 58.730469 10.695312 C 58.894531 10.679688 59.0625 10.675781 59.226562 10.675781 C 59.53125 10.671875 59.832031 10.707031 60.125 10.785156 C 60.390625 10.855469 60.644531 10.953125 60.886719 11.085938 C 61.117188 11.214844 61.324219 11.363281 61.511719 11.546875 C 61.699219 11.71875 61.859375 11.910156 62.003906 12.121094 L 62.226562 11.394531 C 62.277344 11.261719 62.324219 11.152344 62.355469 11.070312 C 62.382812 11.003906 62.417969 10.941406 62.464844 10.886719 C 62.503906 10.847656 62.550781 10.820312 62.605469 10.808594 C 62.6875 10.792969 62.765625 10.785156 62.847656 10.789062 L 64 10.789062 C 64.070312 10.789062 64.132812 10.800781 64.203125 10.8125 C 64.28125 10.824219 64.347656 10.863281 64.40625 10.917969 C 64.476562 10.96875 64.527344 11.035156 64.566406 11.117188 C 64.597656 11.199219 64.613281 11.285156 64.613281 11.371094 Z M 56.953125 15.894531 C 56.949219 16.230469 57.003906 16.558594 57.113281 16.875 C 57.210938 17.171875 57.367188 17.433594 57.570312 17.667969 C 57.621094 17.730469 57.675781 17.785156 57.734375 17.835938 C 57.792969 17.886719 57.851562 17.9375 57.914062 17.984375 C 57.972656 18.027344 58.039062 18.074219 58.105469 18.109375 C 58.171875 18.144531 58.242188 18.183594 58.308594 18.210938 C 58.378906 18.242188 58.453125 18.273438 58.523438 18.292969 C 58.597656 18.316406 58.671875 18.339844 58.746094 18.351562 C 58.824219 18.367188 58.894531 18.378906 58.972656 18.386719 C 59.050781 18.394531 59.125 18.398438 59.203125 18.394531 C 59.539062 18.398438 59.863281 18.332031 60.171875 18.199219 C 60.464844 18.074219 60.722656 17.894531 60.949219 17.667969 C 61.171875 17.441406 61.347656 17.179688 61.464844 16.875 C 61.527344 16.71875 61.574219 16.5625 61.605469 16.394531 C 61.636719 16.230469 61.652344 16.066406 61.652344 15.898438 C 61.652344 15.726562 61.636719 15.566406 61.605469 15.398438 C 61.570312 15.230469 61.527344 15.074219 61.464844 14.917969 C 61.347656 14.613281 61.171875 14.34375 60.949219 14.105469 C 60.726562 13.867188 60.464844 13.683594 60.171875 13.550781 C 60.019531 13.480469 59.863281 13.429688 59.699219 13.394531 C 59.535156 13.363281 59.371094 13.34375 59.203125 13.34375 C 59.042969 13.34375 58.886719 13.359375 58.730469 13.394531 C 58.574219 13.429688 58.425781 13.484375 58.285156 13.554688 C 58.011719 13.6875 57.773438 13.871094 57.578125 14.109375 C 57.375 14.347656 57.222656 14.621094 57.121094 14.921875 C 57.007812 15.238281 56.957031 15.5625 56.953125 15.894531 " fill-opacity="1" fill-rule="nonzero"/><path fill="rgb(16.468811%, 25.878906%, 55.688477%)" d="M 65.824219 10.972656 C 65.886719 10.917969 65.960938 10.878906 66.039062 10.863281 C 66.109375 10.847656 66.183594 10.839844 66.257812 10.839844 L 67.429688 10.839844 C 67.511719 10.835938 67.59375 10.855469 67.671875 10.890625 C 67.734375 10.929688 67.792969 10.976562 67.839844 11.035156 C 67.886719 11.09375 67.925781 11.160156 67.953125 11.230469 C 67.984375 11.304688 68.007812 11.382812 68.039062 11.460938 L 68.203125 12.160156 C 68.292969 11.972656 68.402344 11.804688 68.539062 11.648438 C 68.699219 11.460938 68.878906 11.300781 69.089844 11.171875 C 69.335938 11.015625 69.601562 10.898438 69.882812 10.816406 C 70.238281 10.71875 70.601562 10.675781 70.96875 10.679688 C 71.273438 10.679688 71.566406 10.714844 71.859375 10.785156 C 72.117188 10.847656 72.359375 10.945312 72.589844 11.082031 C 72.8125 11.210938 73.015625 11.367188 73.195312 11.554688 C 73.386719 11.753906 73.558594 11.964844 73.710938 12.199219 C 73.835938 12.003906 73.980469 11.832031 74.152344 11.683594 C 74.367188 11.488281 74.601562 11.324219 74.851562 11.191406 C 75.136719 11.035156 75.4375 10.914062 75.746094 10.828125 C 76.09375 10.734375 76.449219 10.679688 76.804688 10.683594 C 77.070312 10.675781 77.335938 10.707031 77.601562 10.765625 C 77.863281 10.824219 78.113281 10.917969 78.351562 11.039062 C 78.566406 11.152344 78.769531 11.289062 78.957031 11.449219 C 79.140625 11.613281 79.304688 11.789062 79.453125 11.992188 C 79.605469 12.203125 79.730469 12.429688 79.84375 12.664062 C 79.957031 12.902344 80.042969 13.148438 80.109375 13.398438 C 80.257812 13.964844 80.328125 14.539062 80.328125 15.121094 L 80.328125 20.335938 C 80.332031 20.417969 80.324219 20.5 80.300781 20.578125 C 80.277344 20.65625 80.242188 20.726562 80.195312 20.792969 C 80.167969 20.820312 80.140625 20.847656 80.109375 20.867188 C 80.074219 20.890625 80.042969 20.90625 80.007812 20.921875 C 79.976562 20.933594 79.941406 20.941406 79.898438 20.949219 C 79.863281 20.953125 79.828125 20.957031 79.785156 20.953125 L 77.984375 20.953125 C 77.765625 20.953125 77.609375 20.917969 77.527344 20.839844 C 77.441406 20.761719 77.402344 20.613281 77.402344 20.386719 L 77.402344 15.113281 C 77.40625 14.894531 77.375 14.683594 77.300781 14.476562 C 77.234375 14.289062 77.136719 14.117188 77.007812 13.964844 C 76.882812 13.816406 76.730469 13.703125 76.554688 13.621094 C 76.363281 13.535156 76.167969 13.496094 75.960938 13.5 C 75.765625 13.5 75.582031 13.539062 75.402344 13.617188 C 75.226562 13.695312 75.070312 13.804688 74.933594 13.949219 C 74.796875 14.097656 74.6875 14.269531 74.613281 14.460938 C 74.53125 14.671875 74.492188 14.886719 74.492188 15.117188 L 74.492188 20.332031 C 74.5 20.414062 74.492188 20.496094 74.46875 20.574219 C 74.445312 20.652344 74.410156 20.726562 74.363281 20.792969 C 74.335938 20.816406 74.308594 20.84375 74.273438 20.863281 C 74.242188 20.886719 74.210938 20.902344 74.175781 20.917969 C 74.140625 20.929688 74.109375 20.9375 74.066406 20.945312 C 74.03125 20.949219 73.996094 20.953125 73.953125 20.949219 L 72.15625 20.949219 C 71.933594 20.949219 71.78125 20.914062 71.699219 20.835938 C 71.613281 20.757812 71.574219 20.609375 71.574219 20.386719 L 71.574219 15.113281 C 71.574219 14.894531 71.542969 14.683594 71.472656 14.476562 C 71.414062 14.289062 71.324219 14.117188 71.199219 13.964844 C 71.074219 13.816406 70.929688 13.703125 70.753906 13.621094 C 70.566406 13.535156 70.371094 13.496094 70.167969 13.5 C 69.976562 13.5 69.796875 13.539062 69.621094 13.613281 C 69.441406 13.691406 69.277344 13.800781 69.136719 13.9375 C 68.984375 14.085938 68.871094 14.257812 68.777344 14.445312 C 68.679688 14.652344 68.621094 14.871094 68.609375 15.097656 L 68.609375 20.355469 C 68.609375 20.449219 68.59375 20.539062 68.558594 20.625 C 68.53125 20.710938 68.480469 20.78125 68.410156 20.832031 C 68.351562 20.871094 68.285156 20.898438 68.21875 20.921875 C 68.152344 20.933594 68.082031 20.945312 68.011719 20.941406 L 66.253906 20.941406 C 66.03125 20.941406 65.871094 20.886719 65.769531 20.773438 C 65.71875 20.710938 65.679688 20.640625 65.65625 20.566406 C 65.628906 20.488281 65.617188 20.410156 65.621094 20.328125 L 65.621094 11.425781 C 65.621094 11.328125 65.644531 11.234375 65.6875 11.152344 C 65.730469 11.066406 65.792969 11.003906 65.871094 10.949219 Z M 65.824219 10.972656 " fill-opacity="1" fill-rule="nonzero"/><path fill="rgb(16.468811%, 25.878906%, 55.688477%)" d="M 81.507812 8.4375 C 81.503906 8.363281 81.515625 8.289062 81.535156 8.214844 C 81.558594 8.140625 81.589844 8.074219 81.632812 8.007812 C 81.714844 7.890625 81.855469 7.832031 82.058594 7.832031 L 83.964844 7.832031 C 84.023438 7.832031 84.078125 7.847656 84.128906 7.878906 C 84.1875 7.910156 84.242188 7.953125 84.289062 8 C 84.339844 8.058594 84.378906 8.121094 84.414062 8.191406 C 84.445312 8.269531 84.464844 8.355469 84.464844 8.4375 L 84.464844 20.328125 C 84.46875 20.371094 84.464844 20.414062 84.460938 20.453125 C 84.453125 20.496094 84.445312 20.535156 84.429688 20.578125 C 84.417969 20.617188 84.398438 20.65625 84.375 20.6875 C 84.355469 20.726562 84.328125 20.753906 84.300781 20.785156 C 84.242188 20.835938 84.171875 20.875 84.097656 20.90625 C 84.027344 20.929688 83.945312 20.941406 83.871094 20.941406 L 82.058594 20.941406 C 81.855469 20.941406 81.714844 20.890625 81.632812 20.789062 C 81.582031 20.722656 81.550781 20.648438 81.527344 20.570312 C 81.507812 20.492188 81.5 20.410156 81.503906 20.328125 L 81.503906 8.4375 Z M 81.507812 8.4375 " fill-opacity="1" fill-rule="nonzero"/><path fill="rgb(16.468811%, 25.878906%, 55.688477%)" d="M 85.464844 8.378906 C 85.464844 8.160156 85.511719 8 85.605469 7.90625 C 85.667969 7.855469 85.730469 7.820312 85.808594 7.792969 C 85.886719 7.765625 85.960938 7.757812 86.039062 7.765625 L 87.84375 7.765625 C 87.921875 7.761719 88 7.773438 88.070312 7.796875 C 88.148438 7.820312 88.21875 7.855469 88.28125 7.902344 C 88.394531 7.996094 88.449219 8.15625 88.449219 8.375 L 88.449219 9.929688 C 88.449219 10 88.433594 10.070312 88.402344 10.136719 C 88.375 10.214844 88.335938 10.285156 88.285156 10.351562 C 88.234375 10.421875 88.167969 10.476562 88.09375 10.523438 C 88.019531 10.570312 87.933594 10.59375 87.84375 10.59375 L 86.039062 10.59375 C 85.65625 10.59375 85.460938 10.371094 85.460938 9.929688 L 85.460938 8.378906 Z M 85.464844 12.207031 C 85.464844 12.132812 85.476562 12.0625 85.5 11.992188 C 85.519531 11.921875 85.558594 11.859375 85.605469 11.804688 C 85.632812 11.773438 85.664062 11.75 85.695312 11.726562 C 85.726562 11.703125 85.765625 11.6875 85.800781 11.671875 C 85.835938 11.65625 85.878906 11.644531 85.917969 11.640625 C 85.957031 11.636719 86 11.632812 86.039062 11.636719 L 87.816406 11.636719 C 87.886719 11.636719 87.957031 11.652344 88.019531 11.679688 C 88.09375 11.703125 88.164062 11.746094 88.226562 11.796875 C 88.289062 11.847656 88.34375 11.90625 88.386719 11.976562 C 88.429688 12.046875 88.453125 12.125 88.453125 12.210938 L 88.453125 20.378906 C 88.453125 20.417969 88.453125 20.453125 88.449219 20.496094 C 88.445312 20.535156 88.433594 20.574219 88.417969 20.609375 C 88.402344 20.648438 88.386719 20.679688 88.363281 20.714844 C 88.34375 20.746094 88.316406 20.777344 88.289062 20.800781 C 88.222656 20.855469 88.148438 20.890625 88.070312 20.917969 C 87.988281 20.941406 87.910156 20.949219 87.824219 20.945312 L 86.042969 20.945312 C 85.660156 20.945312 85.464844 20.757812 85.464844 20.382812 Z M 85.464844 12.207031 " fill-opacity="1" fill-rule="nonzero"/><path fill="rgb(89.7995%, 10.978699%, 44.309998%)" d="M 85.464844 8.378906 C 85.464844 8.160156 85.511719 8 85.605469 7.90625 C 85.667969 7.855469 85.730469 7.820312 85.808594 7.792969 C 85.886719 7.765625 85.960938 7.757812 86.039062 7.765625 L 87.84375 7.765625 C 87.921875 7.761719 88 7.773438 88.070312 7.796875 C 88.148438 7.820312 88.21875 7.855469 88.28125 7.902344 C 88.394531 7.996094 88.449219 8.15625 88.449219 8.375 L 88.449219 9.929688 C 88.449219 10 88.433594 10.070312 88.402344 10.136719 C 88.375 10.214844 88.335938 10.285156 88.285156 10.351562 C 88.234375 10.421875 88.167969 10.476562 88.09375 10.523438 C 88.019531 10.570312 87.933594 10.59375 87.84375 10.59375 L 86.039062 10.59375 C 85.65625 10.59375 85.460938 10.371094 85.460938 9.929688 L 85.460938 8.378906 Z M 85.464844 8.378906 " fill-opacity="1" fill-rule="nonzero"/><path fill="rgb(16.468811%, 25.878906%, 55.688477%)" d="M 89.378906 11.59375 C 89.355469 11.554688 89.339844 11.507812 89.328125 11.460938 C 89.320312 11.417969 89.316406 11.367188 89.316406 11.320312 C 89.316406 11.273438 89.320312 11.226562 89.328125 11.179688 C 89.339844 11.136719 89.355469 11.089844 89.378906 11.046875 C 89.453125 10.894531 89.632812 10.820312 89.90625 10.820312 L 91.832031 10.820312 C 91.890625 10.816406 91.945312 10.828125 92 10.851562 C 92.054688 10.875 92.109375 10.902344 92.148438 10.945312 C 92.234375 11.035156 92.296875 11.140625 92.332031 11.257812 L 94.53125 17.667969 L 96.6875 11.257812 C 96.703125 11.191406 96.730469 11.128906 96.765625 11.070312 C 96.800781 11.011719 96.851562 10.957031 96.902344 10.917969 C 96.957031 10.882812 97.015625 10.863281 97.074219 10.847656 C 97.136719 10.832031 97.199219 10.824219 97.265625 10.828125 L 99.261719 10.828125 C 99.378906 10.824219 99.496094 10.84375 99.605469 10.886719 C 99.640625 10.902344 99.675781 10.925781 99.707031 10.953125 C 99.738281 10.980469 99.761719 11.015625 99.78125 11.050781 C 99.816406 11.121094 99.828125 11.195312 99.816406 11.273438 C 99.804688 11.355469 99.785156 11.433594 99.753906 11.515625 C 99.558594 12.015625 99.34375 12.5625 99.109375 13.152344 C 98.875 13.742188 98.632812 14.359375 98.382812 15 L 97.617188 16.945312 C 97.355469 17.605469 97.105469 18.257812 96.855469 18.890625 C 96.613281 19.527344 96.375 20.140625 96.148438 20.726562 C 95.925781 21.316406 95.710938 21.855469 95.523438 22.347656 C 95.332031 22.835938 95.167969 23.269531 95.03125 23.640625 C 94.890625 24.011719 94.78125 24.296875 94.710938 24.5 L 94.730469 24.460938 C 94.71875 24.527344 94.691406 24.589844 94.660156 24.648438 C 94.625 24.707031 94.585938 24.757812 94.539062 24.804688 C 94.492188 24.851562 94.441406 24.882812 94.378906 24.90625 C 94.316406 24.929688 94.257812 24.9375 94.195312 24.9375 L 92.398438 24.9375 C 92.164062 24.9375 92.003906 24.890625 91.921875 24.800781 C 91.875 24.742188 91.839844 24.675781 91.820312 24.605469 C 91.796875 24.535156 91.789062 24.460938 91.792969 24.390625 C 91.789062 24.332031 91.800781 24.28125 91.824219 24.230469 C 91.835938 24.203125 91.847656 24.183594 91.867188 24.160156 L 93.082031 20.914062 Z M 89.378906 11.59375 " fill-opacity="1" fill-rule="nonzero"/><g clip-path="url(#id1)"><path fill="rgb(16.468811%, 25.878906%, 55.688477%)" d="M 99.570312 15.894531 C 99.570312 15.417969 99.628906 14.945312 99.75 14.480469 C 99.808594 14.265625 99.878906 14.054688 99.964844 13.847656 C 100.050781 13.640625 100.148438 13.4375 100.257812 13.246094 C 100.367188 13.050781 100.492188 12.863281 100.625 12.6875 C 100.761719 12.507812 100.90625 12.339844 101.058594 12.179688 C 101.367188 11.863281 101.710938 11.59375 102.089844 11.371094 C 102.476562 11.148438 102.886719 10.972656 103.316406 10.855469 C 103.765625 10.734375 104.222656 10.671875 104.6875 10.675781 C 104.855469 10.675781 105.019531 10.679688 105.1875 10.695312 C 105.355469 10.710938 105.519531 10.738281 105.683594 10.769531 C 105.847656 10.804688 106.007812 10.84375 106.167969 10.890625 C 106.328125 10.941406 106.484375 11 106.636719 11.0625 C 106.789062 11.125 106.941406 11.199219 107.089844 11.28125 C 107.234375 11.359375 107.378906 11.445312 107.519531 11.542969 C 107.65625 11.636719 107.792969 11.738281 107.921875 11.84375 C 108.046875 11.953125 108.171875 12.066406 108.292969 12.1875 C 108.523438 12.429688 108.730469 12.6875 108.914062 12.964844 C 109.101562 13.242188 109.253906 13.535156 109.382812 13.847656 C 109.515625 14.171875 109.617188 14.507812 109.6875 14.855469 C 109.757812 15.203125 109.789062 15.554688 109.785156 15.90625 C 109.789062 16.382812 109.726562 16.855469 109.605469 17.316406 C 109.484375 17.753906 109.3125 18.171875 109.089844 18.570312 C 108.980469 18.761719 108.859375 18.949219 108.726562 19.125 C 108.59375 19.300781 108.449219 19.46875 108.296875 19.628906 C 108.140625 19.785156 107.976562 19.929688 107.808594 20.066406 C 107.636719 20.203125 107.453125 20.324219 107.269531 20.441406 C 106.886719 20.664062 106.480469 20.839844 106.054688 20.957031 C 105.609375 21.082031 105.15625 21.140625 104.699219 21.136719 C 104.230469 21.140625 103.777344 21.078125 103.328125 20.957031 C 102.898438 20.839844 102.488281 20.664062 102.101562 20.441406 C 101.914062 20.328125 101.734375 20.203125 101.5625 20.066406 C 101.390625 19.929688 101.226562 19.78125 101.074219 19.628906 C 100.921875 19.46875 100.777344 19.300781 100.644531 19.125 C 100.511719 18.949219 100.390625 18.761719 100.28125 18.570312 C 100.058594 18.175781 99.886719 17.757812 99.765625 17.316406 C 99.640625 16.855469 99.578125 16.386719 99.582031 15.90625 M 102.414062 15.898438 C 102.410156 16.234375 102.464844 16.5625 102.574219 16.878906 C 102.671875 17.175781 102.820312 17.4375 103.023438 17.671875 C 103.226562 17.902344 103.460938 18.078125 103.730469 18.203125 C 103.878906 18.269531 104.03125 18.320312 104.191406 18.351562 C 104.347656 18.386719 104.507812 18.402344 104.667969 18.398438 C 104.824219 18.402344 104.980469 18.382812 105.136719 18.351562 C 105.289062 18.320312 105.4375 18.273438 105.578125 18.207031 C 105.847656 18.078125 106.078125 17.902344 106.273438 17.675781 C 106.46875 17.441406 106.613281 17.179688 106.707031 16.882812 C 106.757812 16.722656 106.792969 16.566406 106.820312 16.398438 C 106.84375 16.234375 106.855469 16.070312 106.855469 15.902344 C 106.855469 15.738281 106.84375 15.570312 106.820312 15.410156 C 106.792969 15.246094 106.757812 15.085938 106.707031 14.925781 C 106.613281 14.625 106.464844 14.355469 106.273438 14.113281 C 106.226562 14.054688 106.171875 13.996094 106.117188 13.941406 C 106.0625 13.890625 106.003906 13.839844 105.945312 13.792969 C 105.882812 13.742188 105.820312 13.699219 105.753906 13.660156 C 105.6875 13.617188 105.625 13.582031 105.554688 13.546875 C 105.484375 13.515625 105.414062 13.484375 105.34375 13.460938 C 105.269531 13.4375 105.195312 13.417969 105.121094 13.402344 C 105.042969 13.390625 104.972656 13.375 104.894531 13.371094 C 104.816406 13.363281 104.742188 13.359375 104.664062 13.363281 C 104.503906 13.359375 104.34375 13.378906 104.183594 13.410156 C 104.027344 13.445312 103.875 13.5 103.726562 13.570312 C 103.59375 13.636719 103.464844 13.714844 103.34375 13.804688 C 103.226562 13.898438 103.117188 14.003906 103.019531 14.121094 C 102.820312 14.363281 102.671875 14.632812 102.570312 14.933594 C 102.460938 15.246094 102.410156 15.570312 102.410156 15.902344 " fill-opacity="1" fill-rule="nonzero"/></g><g clip-path="url(#id2)"><path fill="rgb(89.7995%, 10.978699%, 44.309998%)" d="M 6.832031 17.457031 L 4.035156 20.273438 C 3.988281 20.320312 3.949219 20.371094 3.90625 20.417969 C 3.867188 20.46875 3.824219 20.519531 3.789062 20.578125 C 3.753906 20.632812 3.71875 20.6875 3.691406 20.742188 C 3.660156 20.800781 3.632812 20.859375 3.605469 20.921875 C 3.582031 20.980469 3.558594 21.042969 3.539062 21.105469 C 3.523438 21.167969 3.507812 21.230469 3.492188 21.292969 C 3.480469 21.355469 3.472656 21.421875 3.464844 21.484375 C 3.457031 21.546875 3.453125 21.613281 3.453125 21.679688 C 3.453125 21.746094 3.457031 21.8125 3.464844 21.878906 C 3.472656 21.945312 3.480469 22.007812 3.492188 22.070312 C 3.507812 22.132812 3.523438 22.195312 3.539062 22.257812 C 3.558594 22.320312 3.582031 22.382812 3.605469 22.441406 C 3.632812 22.5 3.65625 22.558594 3.691406 22.621094 C 3.71875 22.679688 3.757812 22.734375 3.789062 22.785156 C 3.824219 22.839844 3.863281 22.894531 3.90625 22.945312 C 3.945312 22.996094 3.988281 23.042969 4.035156 23.089844 C 4.085938 23.136719 4.132812 23.175781 4.179688 23.222656 C 4.230469 23.261719 4.28125 23.304688 4.335938 23.339844 C 4.390625 23.375 4.445312 23.410156 4.503906 23.441406 C 4.5625 23.46875 4.621094 23.5 4.679688 23.523438 C 4.738281 23.550781 4.796875 23.574219 4.859375 23.589844 C 4.921875 23.609375 4.984375 23.625 5.050781 23.640625 C 5.117188 23.652344 5.175781 23.660156 5.242188 23.667969 C 5.308594 23.675781 5.371094 23.679688 5.4375 23.679688 C 5.503906 23.679688 5.566406 23.675781 5.628906 23.667969 C 5.695312 23.660156 5.757812 23.652344 5.824219 23.640625 C 5.886719 23.628906 5.949219 23.609375 6.011719 23.589844 C 6.074219 23.574219 6.136719 23.550781 6.195312 23.523438 C 6.253906 23.5 6.316406 23.472656 6.371094 23.441406 C 6.429688 23.410156 6.484375 23.375 6.539062 23.339844 C 6.59375 23.304688 6.644531 23.265625 6.695312 23.222656 C 6.746094 23.175781 6.792969 23.136719 6.835938 23.089844 L 12.429688 17.453125 C 12.480469 17.402344 12.519531 17.355469 12.5625 17.308594 C 12.601562 17.257812 12.644531 17.203125 12.679688 17.148438 C 12.714844 17.09375 12.75 17.039062 12.777344 16.984375 C 12.808594 16.921875 12.835938 16.863281 12.863281 16.804688 C 12.886719 16.746094 12.910156 16.683594 12.925781 16.621094 C 12.945312 16.558594 12.960938 16.496094 12.976562 16.433594 C 12.984375 16.371094 12.996094 16.304688 13.003906 16.242188 C 13.011719 16.175781 13.015625 16.109375 13.015625 16.042969 C 13.015625 15.976562 13.011719 15.914062 13.003906 15.847656 C 12.996094 15.78125 12.988281 15.71875 12.976562 15.65625 C 12.964844 15.59375 12.945312 15.53125 12.925781 15.46875 C 12.910156 15.40625 12.886719 15.34375 12.863281 15.285156 C 12.835938 15.226562 12.8125 15.164062 12.777344 15.105469 C 12.75 15.046875 12.710938 14.992188 12.679688 14.941406 C 12.644531 14.886719 12.605469 14.832031 12.5625 14.78125 C 12.523438 14.730469 12.480469 14.683594 12.429688 14.636719 L 6.832031 9 C 6.785156 8.957031 6.738281 8.910156 6.691406 8.867188 C 6.644531 8.824219 6.589844 8.785156 6.535156 8.75 C 6.480469 8.710938 6.425781 8.679688 6.367188 8.648438 C 6.308594 8.621094 6.25 8.589844 6.191406 8.566406 C 6.132812 8.539062 6.070312 8.515625 6.007812 8.5 C 5.945312 8.480469 5.886719 8.464844 5.820312 8.449219 C 5.757812 8.4375 5.691406 8.429688 5.625 8.421875 C 5.558594 8.414062 5.5 8.410156 5.433594 8.410156 C 5.367188 8.410156 5.300781 8.414062 5.238281 8.421875 C 5.175781 8.429688 5.113281 8.433594 5.046875 8.449219 C 4.980469 8.464844 4.917969 8.480469 4.855469 8.5 C 4.792969 8.515625 4.734375 8.539062 4.675781 8.566406 C 4.617188 8.589844 4.558594 8.617188 4.5 8.648438 C 4.441406 8.683594 4.386719 8.710938 4.332031 8.75 C 4.277344 8.785156 4.226562 8.824219 4.175781 8.867188 C 4.125 8.910156 4.078125 8.953125 4.03125 9 C 3.984375 9.046875 3.945312 9.097656 3.902344 9.144531 C 3.863281 9.195312 3.820312 9.25 3.785156 9.304688 C 3.75 9.359375 3.714844 9.414062 3.6875 9.46875 C 3.65625 9.527344 3.628906 9.589844 3.601562 9.648438 C 3.578125 9.707031 3.554688 9.769531 3.539062 9.832031 C 3.519531 9.894531 3.503906 9.957031 3.488281 10.019531 C 3.476562 10.082031 3.46875 10.148438 3.460938 10.210938 C 3.453125 10.273438 3.449219 10.339844 3.449219 10.40625 C 3.449219 10.472656 3.453125 10.539062 3.460938 10.605469 C 3.46875 10.671875 3.476562 10.734375 3.488281 10.796875 C 3.503906 10.859375 3.519531 10.921875 3.539062 10.984375 C 3.554688 11.046875 3.578125 11.109375 3.601562 11.167969 C 3.628906 11.226562 3.652344 11.285156 3.6875 11.347656 C 3.714844 11.40625 3.753906 11.460938 3.785156 11.511719 C 3.820312 11.566406 3.859375 11.621094 3.902344 11.671875 C 3.941406 11.722656 3.984375 11.769531 4.03125 11.816406 L 6.828125 14.632812 C 6.875 14.683594 6.917969 14.730469 6.960938 14.777344 C 7 14.828125 7.039062 14.882812 7.078125 14.9375 C 7.113281 14.992188 7.144531 15.046875 7.175781 15.101562 C 7.203125 15.160156 7.234375 15.222656 7.257812 15.28125 C 7.285156 15.339844 7.304688 15.402344 7.324219 15.464844 C 7.34375 15.527344 7.359375 15.589844 7.371094 15.652344 C 7.382812 15.714844 7.394531 15.78125 7.402344 15.84375 C 7.410156 15.910156 7.414062 15.972656 7.414062 16.039062 C 7.414062 16.109375 7.410156 16.171875 7.402344 16.238281 C 7.394531 16.304688 7.386719 16.367188 7.371094 16.429688 C 7.359375 16.492188 7.34375 16.554688 7.324219 16.617188 C 7.304688 16.679688 7.285156 16.742188 7.257812 16.800781 C 7.234375 16.859375 7.207031 16.921875 7.175781 16.980469 C 7.144531 17.039062 7.109375 17.09375 7.078125 17.144531 C 7.039062 17.199219 7.003906 17.253906 6.960938 17.304688 C 6.921875 17.363281 6.875 17.410156 6.832031 17.457031 Z M 6.832031 17.457031 " fill-opacity="1" fill-rule="nonzero"/></g><path fill="rgb(89.7995%, 10.978699%, 44.309998%)" d="M 8.679688 15.613281 L 11.46875 18.417969 L 12.429688 17.457031 C 12.476562 17.40625 12.515625 17.359375 12.558594 17.3125 C 12.597656 17.261719 12.640625 17.207031 12.675781 17.152344 C 12.710938 17.097656 12.746094 17.042969 12.773438 16.988281 C 12.804688 16.925781 12.832031 16.867188 12.859375 16.808594 C 12.882812 16.75 12.90625 16.6875 12.921875 16.625 C 12.941406 16.5625 12.957031 16.5 12.972656 16.4375 C 12.980469 16.375 12.992188 16.308594 13 16.242188 C 13.007812 16.175781 13.011719 16.113281 13.011719 16.046875 C 13.011719 15.980469 13.007812 15.917969 13 15.851562 C 12.992188 15.785156 12.984375 15.722656 12.972656 15.660156 C 12.960938 15.597656 12.941406 15.535156 12.921875 15.472656 C 12.90625 15.410156 12.882812 15.347656 12.859375 15.289062 C 12.832031 15.226562 12.808594 15.167969 12.773438 15.109375 C 12.746094 15.050781 12.707031 14.996094 12.675781 14.945312 C 12.640625 14.886719 12.601562 14.835938 12.558594 14.785156 C 12.519531 14.734375 12.476562 14.683594 12.429688 14.640625 L 9.640625 11.832031 L 8.679688 12.792969 C 8.632812 12.84375 8.59375 12.890625 8.550781 12.9375 C 8.503906 12.984375 8.46875 13.042969 8.433594 13.097656 C 8.394531 13.152344 8.363281 13.207031 8.335938 13.261719 C 8.304688 13.324219 8.277344 13.382812 8.25 13.441406 C 8.226562 13.5 8.203125 13.5625 8.183594 13.625 C 8.167969 13.6875 8.152344 13.75 8.136719 13.8125 C 8.125 13.875 8.117188 13.941406 8.109375 14.003906 C 8.101562 14.070312 8.097656 14.136719 8.097656 14.203125 C 8.097656 14.269531 8.101562 14.332031 8.109375 14.398438 C 8.117188 14.464844 8.121094 14.527344 8.136719 14.589844 C 8.148438 14.652344 8.167969 14.714844 8.183594 14.777344 C 8.203125 14.839844 8.226562 14.902344 8.25 14.960938 C 8.277344 15.019531 8.300781 15.082031 8.335938 15.140625 C 8.363281 15.199219 8.398438 15.253906 8.433594 15.304688 C 8.464844 15.359375 8.503906 15.414062 8.550781 15.464844 C 8.589844 15.519531 8.632812 15.566406 8.679688 15.613281 Z M 8.679688 15.613281 " fill-opacity="1" fill-rule="nonzero"/><g clip-path="url(#id3)"><path fill="rgb(16.468811%, 25.878906%, 55.688477%)" d="M 14.882812 12.179688 L 17.679688 9.363281 C 17.726562 9.316406 17.769531 9.265625 17.8125 9.21875 C 17.855469 9.171875 17.890625 9.113281 17.929688 9.058594 C 17.964844 9.003906 17.996094 8.949219 18.027344 8.894531 C 18.054688 8.835938 18.085938 8.773438 18.109375 8.714844 C 18.136719 8.65625 18.15625 8.59375 18.175781 8.53125 C 18.195312 8.46875 18.210938 8.40625 18.222656 8.34375 C 18.234375 8.28125 18.246094 8.214844 18.253906 8.152344 C 18.261719 8.085938 18.265625 8.023438 18.265625 7.957031 C 18.265625 7.890625 18.261719 7.824219 18.253906 7.757812 C 18.246094 7.691406 18.238281 7.628906 18.222656 7.566406 C 18.210938 7.503906 18.195312 7.441406 18.175781 7.378906 C 18.15625 7.316406 18.136719 7.253906 18.109375 7.195312 C 18.085938 7.136719 18.058594 7.078125 18.027344 7.015625 C 17.996094 6.957031 17.960938 6.902344 17.929688 6.851562 C 17.894531 6.800781 17.855469 6.742188 17.8125 6.691406 C 17.769531 6.640625 17.726562 6.59375 17.679688 6.546875 C 17.632812 6.5 17.585938 6.460938 17.539062 6.414062 C 17.488281 6.375 17.4375 6.332031 17.382812 6.296875 C 17.328125 6.261719 17.273438 6.226562 17.214844 6.195312 C 17.15625 6.167969 17.097656 6.136719 17.039062 6.113281 C 16.980469 6.085938 16.917969 6.0625 16.855469 6.046875 C 16.792969 6.027344 16.734375 6.011719 16.667969 5.996094 C 16.605469 5.988281 16.539062 5.976562 16.472656 5.96875 C 16.410156 5.960938 16.347656 5.957031 16.28125 5.957031 C 16.214844 5.957031 16.152344 5.960938 16.085938 5.96875 C 16.023438 5.976562 15.960938 5.984375 15.894531 5.996094 C 15.832031 6.007812 15.765625 6.027344 15.703125 6.046875 C 15.644531 6.0625 15.582031 6.085938 15.523438 6.113281 C 15.464844 6.136719 15.40625 6.164062 15.347656 6.195312 C 15.289062 6.230469 15.234375 6.261719 15.179688 6.296875 C 15.125 6.332031 15.074219 6.371094 15.023438 6.414062 C 14.972656 6.457031 14.925781 6.5 14.882812 6.546875 L 9.289062 12.179688 C 9.242188 12.230469 9.203125 12.277344 9.15625 12.324219 C 9.117188 12.375 9.078125 12.429688 9.042969 12.484375 C 9.003906 12.539062 8.972656 12.59375 8.941406 12.648438 C 8.914062 12.710938 8.886719 12.769531 8.859375 12.828125 C 8.832031 12.886719 8.8125 12.949219 8.792969 13.011719 C 8.777344 13.074219 8.761719 13.136719 8.746094 13.199219 C 8.734375 13.261719 8.722656 13.328125 8.71875 13.390625 C 8.710938 13.460938 8.707031 13.523438 8.707031 13.589844 C 8.707031 13.65625 8.710938 13.71875 8.71875 13.785156 C 8.722656 13.851562 8.730469 13.914062 8.746094 13.976562 C 8.757812 14.039062 8.777344 14.101562 8.792969 14.164062 C 8.8125 14.226562 8.832031 14.289062 8.859375 14.347656 C 8.886719 14.410156 8.910156 14.46875 8.941406 14.527344 C 8.972656 14.585938 9.007812 14.640625 9.042969 14.691406 C 9.078125 14.75 9.113281 14.800781 9.15625 14.851562 C 9.199219 14.902344 9.242188 14.953125 9.289062 14.996094 L 14.882812 20.636719 C 14.933594 20.683594 14.980469 20.726562 15.027344 20.769531 C 15.078125 20.808594 15.128906 20.851562 15.183594 20.886719 C 15.238281 20.925781 15.292969 20.957031 15.351562 20.988281 C 15.410156 21.015625 15.46875 21.046875 15.527344 21.070312 C 15.585938 21.097656 15.648438 21.121094 15.707031 21.136719 C 15.769531 21.15625 15.832031 21.171875 15.898438 21.1875 C 15.960938 21.199219 16.027344 21.207031 16.089844 21.214844 C 16.15625 21.222656 16.21875 21.226562 16.285156 21.226562 C 16.351562 21.226562 16.414062 21.222656 16.476562 21.214844 C 16.542969 21.207031 16.605469 21.199219 16.671875 21.1875 C 16.734375 21.175781 16.796875 21.15625 16.859375 21.136719 C 16.921875 21.121094 16.984375 21.097656 17.042969 21.070312 C 17.101562 21.046875 17.160156 21.019531 17.21875 20.988281 C 17.277344 20.953125 17.332031 20.925781 17.386719 20.886719 C 17.441406 20.851562 17.492188 20.8125 17.542969 20.769531 C 17.59375 20.726562 17.640625 20.683594 17.683594 20.636719 C 17.730469 20.589844 17.773438 20.539062 17.816406 20.492188 C 17.859375 20.445312 17.894531 20.386719 17.933594 20.332031 C 17.96875 20.277344 18 20.222656 18.03125 20.167969 C 18.058594 20.109375 18.089844 20.046875 18.113281 19.988281 C 18.140625 19.929688 18.160156 19.867188 18.179688 19.804688 C 18.199219 19.742188 18.210938 19.679688 18.226562 19.617188 C 18.238281 19.554688 18.25 19.488281 18.257812 19.425781 C 18.265625 19.359375 18.265625 19.296875 18.265625 19.230469 C 18.265625 19.164062 18.265625 19.097656 18.257812 19.03125 C 18.25 18.964844 18.242188 18.902344 18.226562 18.839844 C 18.214844 18.777344 18.199219 18.714844 18.179688 18.652344 C 18.160156 18.589844 18.140625 18.527344 18.113281 18.46875 C 18.089844 18.410156 18.0625 18.347656 18.03125 18.289062 C 18 18.230469 17.964844 18.175781 17.933594 18.125 C 17.898438 18.074219 17.859375 18.015625 17.816406 17.964844 C 17.773438 17.914062 17.730469 17.867188 17.683594 17.820312 L 14.886719 15.003906 C 14.839844 14.953125 14.800781 14.90625 14.757812 14.859375 C 14.71875 14.808594 14.675781 14.753906 14.640625 14.699219 C 14.605469 14.644531 14.570312 14.589844 14.542969 14.535156 C 14.511719 14.476562 14.484375 14.414062 14.457031 14.355469 C 14.433594 14.296875 14.410156 14.234375 14.394531 14.171875 C 14.375 14.109375 14.359375 14.046875 14.34375 13.984375 C 14.332031 13.921875 14.324219 13.855469 14.316406 13.792969 C 14.308594 13.726562 14.304688 13.664062 14.304688 13.59375 C 14.304688 13.527344 14.308594 13.464844 14.316406 13.398438 C 14.324219 13.332031 14.332031 13.269531 14.34375 13.207031 C 14.359375 13.144531 14.375 13.082031 14.394531 13.019531 C 14.410156 12.957031 14.433594 12.894531 14.457031 12.835938 C 14.484375 12.777344 14.507812 12.714844 14.542969 12.65625 C 14.570312 12.597656 14.609375 12.542969 14.640625 12.492188 C 14.671875 12.441406 14.714844 12.382812 14.757812 12.332031 C 14.796875 12.277344 14.835938 12.226562 14.882812 12.179688 Z M 14.882812 12.179688 " fill-opacity="1" fill-rule="nonzero"/></g></svg>